<?xml version="1.0" encoding="UTF-8"?>
<svg width="46px" height="8px" viewBox="0 0 46 8" version="1.1" xmlns="http://www.w3.org/2000/svg" xmlns:xlink="http://www.w3.org/1999/xlink">
    <!-- Generator: Sketch 40.3 (33839) - http://www.bohemiancoding.com/sketch -->
    <title>Artboard</title>
    <desc>Created with Sketch.</desc>
    <defs></defs>
    <g id="Page-1" stroke="none" stroke-width="1" fill="none" fill-rule="evenodd" fill-opacity="0.95">
        <g id="Artboard" fill="#FFFFFF">
            <path d="M14.8130624,7.98100634 C14.8130624,7.98100634 14.9203793,7.88865171 14.9347583,7.8314964 C14.9749145,7.64556743 14.9077537,7.46504029 14.9077537,7.46504029 L13.2348729,4.84443477 L13.2348729,4.82753213 L13.2422378,7.58196469 L13.2899341,7.8004792 L13.3807677,7.91897189 L8.09172848,7.91897189 L8.17887963,7.8004792 L8.22447175,7.56628183 L8.22236751,0.393291222 L8.17624933,0.185580483 L8.08979957,0.0773687651 L13.3809431,0.0773687651 L13.2922137,0.192724897 L13.2466216,0.422217382 L13.2434652,2.99281202 L15.1599134,0.500980179 C15.1599134,0.500980179 15.1995435,0.403397953 15.1995435,0.262774994 C15.1995435,0.174253975 15.1123924,0.0299716837 15.1123924,0.0299716837 L20.3782848,0.0358963189 L18.0869289,3.27388369 L20.8484099,7.6591592 L21.0551528,7.8166848 L21.290303,7.91879766 L14.8130624,7.91879766 L14.8130624,7.98100634 L14.8130624,7.98100634 L14.8130624,7.98100634 Z M5.15559452,7.60304943 L5.20241414,7.84805051 L5.2883378,7.99512091 L0.00210425272,7.98100634 L0.0643550623,7.8314964 L0.0832933372,7.58179046 L0.0832933372,0.400958397 L0.061900101,0.189588325 L0,0.0773687651 L5.29044205,0.0773687651 L5.20241414,0.192724897 L5.15769878,0.422217382 L5.15559452,7.60304943 L5.15559452,7.60304943 Z M30.368926,2.97085602 L30.6093368,2.92729253 L30.7566346,2.84155957 L30.752426,5.05824439 L30.5977635,4.96832934 L30.368926,4.92354607 L27.4385787,4.92685689 L27.4385787,5.65349597 L31.2646362,5.65349597 L31.534156,5.60017425 L31.6667239,5.49858419 L31.6754916,8 L22.4067844,7.98205183 L22.4916559,7.83254194 L22.5286557,7.58213897 L22.5286557,0.400958397 L22.4895517,0.151600958 L22.400121,0 L31.6381411,0.0172511435 L31.6453306,2.42369854 L31.4950519,2.36027009 L31.2435937,2.34267044 L27.4385787,2.34267044 L27.4385787,2.98200827 L30.368926,2.97085602 L30.368926,2.97085602 Z M35.9955224,0.412110651 C35.9955224,0.412110651 36.0348018,0.271661947 36.0179678,0.159790895 C36.002712,0.0503593988 35.9294138,0.0085384448 35.9294138,0.0085384448 L43.0987782,0.0106294925 C43.0987782,0.0106294925 43.024954,0.0503593988 43.0095228,0.162404705 C42.9933902,0.271661947 43.0324942,0.414027445 43.0324942,0.414027445 L46.1625702,7.70080594 L46.2621715,7.85589194 L46.4,7.98118057 L40.7381573,7.9909388 C40.7381573,7.9909388 40.8249578,7.80901766 40.8160147,7.73321714 C40.8070716,7.6525376 40.7790149,7.54850794 40.7790149,7.54850794 L40.4112968,6.52476583 L37.9468661,6.52476583 L37.5439017,7.54833371 C37.5439017,7.54833371 37.5056745,7.55722063 37.5056745,7.63598343 C37.5056745,7.78932697 37.598437,7.91879766 37.598437,7.91879766 L33.0327346,7.91879766 C33.0327346,7.91879766 33.1898521,7.85711171 33.2766526,7.66839469 C33.3474957,7.51923326 33.3338181,7.527946 33.3338181,7.527946 L35.9955224,0.412110651 L35.9955224,0.412110651 L35.9955224,0.412110651 Z M39.17838,3.39202788 L38.556398,4.7822261 L39.802291,4.7822261 L39.17838,3.39202788 L39.17838,3.39202788 Z" id="Combined-Shape"></path>
        </g>
    </g>
</svg>