<?xml version="1.0" encoding="UTF-8" standalone="no"?>
<svg width="180px" height="70px" viewBox="0 0 180 70" version="1.1" xmlns="http://www.w3.org/2000/svg" xmlns:xlink="http://www.w3.org/1999/xlink">
    <!-- Generator: Sketch 41.2 (35397) - http://www.bohemiancoding.com/sketch -->
    <title>Snapchat</title>
    <desc>Created with Sketch.</desc>
    <defs></defs>
    <g id="Page-1" stroke="none" stroke-width="1" fill="none" fill-rule="evenodd">
        <g id="Snapchat" fill="#373A3C">
            <g id="Group-2" transform="translate(18.000000, 18.000000)">
                <g id="Group" transform="translate(0.000000, 4.000000)">
                    <path d="M3.88008264,9.32214286 C3.43520289,9.32516534 2.99069487,9.2955633 2.55008264,9.23357143 C2.22679125,9.18897856 1.90963031,9.10725612 1.60479339,8.99 C1.37543986,8.90294206 1.16329162,8.77548001 0.978264463,8.61357143 C0.82910316,8.4789 0.706103508,8.31746571 0.61553719,8.1375 C0.52864513,7.96332984 0.469306781,7.77655307 0.439669421,7.58392857 C0.424286837,7.37755231 0.424286837,7.17030483 0.439669421,6.96392857 L0.439669421,6.67607143 L0.439669421,6.34392857 L0.439669421,6.00071429 L0.439669421,5.69071429 L1.53884298,5.79035714 L1.47289256,6.24428571 C1.46226024,6.39540574 1.46226024,6.54709426 1.47289256,6.69821429 C1.46852613,6.92367202 1.50197109,7.148255 1.57181818,7.3625 C1.64873723,7.56176367 1.79807807,7.72406281 1.98950413,7.81642857 C2.28352561,7.95632125 2.5998642,8.04253936 2.92380165,8.07107143 C3.46760072,8.13108893 4.01458003,8.15697225 4.56157025,8.14857143 L9.76066116,8.14857143 L9.76066116,4.30678571 L10.9147934,4.30678571 L10.9147934,9.32214286 L3.88008264,9.32214286 Z M4.42966942,1.98178571 C4.41190317,1.89411817 4.41190317,1.80373897 4.42966942,1.71607143 C4.46376736,1.63424696 4.51216509,1.55924907 4.57256198,1.49464286 C4.7694382,1.29797576 5.06498474,1.24106456 5.32,1.35071429 C5.48288554,1.42123801 5.61271118,1.55200492 5.68272727,1.71607143 C5.79478679,1.97257956 5.73792926,2.2721445 5.53983471,2.46892857 C5.47569354,2.52976336 5.40123549,2.57851199 5.32,2.61285714 C5.10990557,2.7017009 4.86962934,2.67890472 4.67970023,2.55210878 C4.48977111,2.42531285 4.37532203,2.21129579 4.37471074,1.98178571 L4.42966942,1.98178571 Z M6.26528926,1.98178571 C6.247523,1.89411817 6.247523,1.80373897 6.26528926,1.71607143 C6.29938719,1.63424696 6.34778492,1.55924907 6.40818182,1.49464286 C6.60505803,1.29797576 6.90060457,1.24106456 7.15561983,1.35071429 C7.31850538,1.42123801 7.44833102,1.55200492 7.51834711,1.71607143 C7.63040663,1.97257956 7.57354909,2.2721445 7.37545455,2.46892857 C7.31131337,2.52976336 7.23685533,2.57851199 7.15561983,2.61285714 C6.9455254,2.7017009 6.70524918,2.67890472 6.51532006,2.55210878 C6.32539095,2.42531285 6.21094187,2.21129579 6.21033058,1.98178571 L6.26528926,1.98178571 Z" id="Shape"></path>
                    <path d="M13.0252066,0.0110714286 L14.1793388,0.0110714286 L14.1793388,6.975 C14.1678083,7.16672904 14.1678083,7.35898525 14.1793388,7.55071429 C14.1890895,7.6777036 14.2226576,7.801679 14.2782645,7.91607143 C14.3215052,7.99929782 14.3911543,8.0655544 14.4761157,8.10428571 C14.5849113,8.12665454 14.6970721,8.12665454 14.8058678,8.10428571 L15.2345455,8.10428571 C15.3567481,8.09554137 15.4788641,8.12244794 15.586281,8.18178571 C15.6697584,8.2431177 15.7155574,8.34376728 15.7071901,8.4475 L15.7071901,8.89035714 C15.7214884,8.95600511 15.7214884,9.02399489 15.7071901,9.08964286 C15.6859073,9.13565406 15.651458,9.17420856 15.6082645,9.20035714 L15.4653719,9.20035714 L14.6629752,9.20035714 C14.4100439,9.20663977 14.158774,9.15753243 13.9265289,9.05642857 C13.7255566,8.96641994 13.5485435,8.8298524 13.4099174,8.65785714 C13.2715242,8.48105828 13.1705256,8.27759653 13.1131405,8.06 C13.0465692,7.81847338 13.0132823,7.56887433 13.0142149,7.31821429 L13.0252066,0.0110714286 Z" id="Shape"></path>
                    <path d="M16.4766116,4.24035714 L17.2460331,4.04107143 C17.5350684,3.97937599 17.8299311,3.94967593 18.1253719,3.9525 C18.4256416,3.94688114 18.7241804,3.99950422 19.0047107,4.1075 C19.2517264,4.20413539 19.4762547,4.35113693 19.6642149,4.53928571 C19.8495194,4.73205312 19.998497,4.95713959 20.1038843,5.20357143 C20.2210172,5.47206432 20.3023303,5.75500053 20.3457025,6.045 L20.4776033,6.84214286 C20.5143023,7.07139014 20.5694425,7.29725304 20.6424793,7.5175 C20.6956919,7.68768534 20.7815893,7.84567887 20.8952893,7.9825 C20.9907271,8.09658646 21.1318998,8.16159046 21.28,8.15964286 L21.28,9.32214286 L15.2675207,9.32214286 C15.145318,9.3308872 15.023202,9.30398064 14.9157851,9.24464286 C14.8323077,9.18331087 14.7865087,9.0826613 14.794876,8.97892857 L14.794876,8.53607143 C14.7805777,8.47042346 14.7805777,8.40243369 14.794876,8.33678571 C14.8161588,8.29077451 14.8506081,8.25222001 14.8938017,8.22607143 L15.0366942,8.22607143 L19.7961157,8.22607143 C19.6980198,8.12130805 19.6230938,7.99678368 19.576281,7.86071429 C19.5067136,7.65222501 19.458826,7.43702357 19.4333884,7.21857143 C19.4333884,6.9602381 19.3894215,6.70559524 19.3014876,6.45464286 C19.2544558,6.21711192 19.1690515,5.98896263 19.0486777,5.77928571 C18.9308103,5.57843775 18.7644436,5.41086477 18.5650413,5.29214286 C18.315899,5.1562021 18.0347173,5.09113796 17.7516529,5.10392857 L17.4328926,5.10392857 L17.0701653,5.15928571 L16.7184298,5.23678571 L16.4326446,5.33642857 L16.4766116,4.24035714 Z M17.7846281,11.2707143 C17.7668618,11.1830467 17.7668618,11.0926675 17.7846281,11.005 C17.818726,10.9231755 17.8671238,10.8481776 17.9275207,10.7835714 C18.1243969,10.5869043 18.4199434,10.5299931 18.6749587,10.6396429 C18.8378442,10.7101666 18.9676699,10.8409335 19.037686,11.005 C19.1497455,11.2615081 19.0928879,11.5610731 18.8947934,11.7578571 C18.8306522,11.8186919 18.7561942,11.8674406 18.6749587,11.9017857 C18.4648642,11.9906295 18.224588,11.9678333 18.0346589,11.8410374 C17.8447298,11.7142414 17.7302807,11.5002244 17.7296694,11.2707143 L17.7846281,11.2707143 Z" id="Shape"></path>
                    <path d="M29.0731405,9.32214286 C28.6282607,9.32516534 28.1837527,9.2955633 27.7431405,9.23357143 C27.4198491,9.18897856 27.1026882,9.10725612 26.7978512,8.99 C26.5684977,8.90294206 26.3563495,8.77548001 26.1713223,8.61357143 C26.022161,8.4789 25.8991614,8.31746571 25.808595,8.1375 C25.721703,7.96332984 25.6623646,7.77655307 25.6327273,7.58392857 C25.6173447,7.37755231 25.6173447,7.17030483 25.6327273,6.96392857 L25.6327273,6.67607143 L25.6327273,6.34392857 L25.6327273,6.00071429 L25.6327273,5.69071429 L26.7319008,5.79035714 L26.6659504,6.24428571 C26.6553181,6.39540574 26.6553181,6.54709426 26.6659504,6.69821429 C26.661584,6.92367202 26.6950289,7.148255 26.764876,7.3625 C26.8417951,7.56176367 26.9911359,7.72406281 27.182562,7.81642857 C27.4765835,7.95632125 27.7929221,8.04253936 28.1168595,8.07107143 C28.6606586,8.13108893 29.2076379,8.15697225 29.7546281,8.14857143 L34.953719,8.14857143 L34.953719,4.30678571 L36.1078512,4.30678571 L36.1078512,9.32214286 L29.0731405,9.32214286 Z M30.2822314,11.2707143 C30.2644652,11.1830467 30.2644652,11.0926675 30.2822314,11.005 C30.3163293,10.9231755 30.3647271,10.8481776 30.425124,10.7835714 C30.6220002,10.5869043 30.9175467,10.5299931 31.172562,10.6396429 C31.3354475,10.7101666 31.4652732,10.8409335 31.5352893,11.005 C31.6473488,11.2615081 31.5904912,11.5610731 31.3923967,11.7578571 C31.3282555,11.8186919 31.2537975,11.8674406 31.172562,11.9017857 C30.9624676,11.9906295 30.7221913,11.9678333 30.5322622,11.8410374 C30.3423331,11.7142414 30.227884,11.5002244 30.2272727,11.2707143 L30.2822314,11.2707143 Z" id="Shape"></path>
                    <path d="M38.2182645,0.0110714286 L39.3723967,0.0110714286 L39.3723967,6.975 C39.3608661,7.16672904 39.3608661,7.35898525 39.3723967,7.55071429 C39.3821474,7.6777036 39.4157155,7.801679 39.4713223,7.91607143 C39.5145631,7.99929782 39.5842121,8.0655544 39.6691736,8.10428571 C39.7779692,8.12665454 39.89013,8.12665454 39.9989256,8.10428571 L40.4276033,8.10428571 C40.5498059,8.09554137 40.671922,8.12244794 40.7793388,8.18178571 C40.8628163,8.2431177 40.9086153,8.34376728 40.9002479,8.4475 L40.9002479,8.89035714 C40.9145462,8.95600511 40.9145462,9.02399489 40.9002479,9.08964286 C40.8789651,9.13565406 40.8445158,9.17420856 40.8013223,9.20035714 L40.6584298,9.20035714 L39.8780165,9.20035714 C39.6250852,9.20663977 39.3738153,9.15753243 39.1415702,9.05642857 C38.9405979,8.96641994 38.7635848,8.8298524 38.6249587,8.65785714 C38.4865656,8.48105828 38.3855669,8.27759653 38.3281818,8.06 C38.2616105,7.81847338 38.2283236,7.56887433 38.2292562,7.31821429 L38.2182645,0.0110714286 Z" id="Shape"></path>
                    <path d="M43.3733884,7.76107143 C43.581091,7.90074882 43.8118699,8.00197794 44.054876,8.06 C44.3647643,8.13188787 44.682215,8.16535032 45.0001653,8.15964286 L45.0001653,8.15964286 C45.1223679,8.15089852 45.244484,8.17780508 45.3519008,8.23714286 C45.4353783,8.29847484 45.4811773,8.39912442 45.4728099,8.50285714 L45.4728099,8.94571429 C45.4871082,9.01136226 45.4871082,9.07935203 45.4728099,9.145 C45.4515271,9.1910112 45.4170778,9.2295657 45.3738843,9.25571429 L45.2309917,9.25571429 L44.9891736,9.25571429 C44.6151384,9.26445184 44.242656,9.20442255 43.89,9.07857143 C43.6148724,8.97366897 43.3586685,8.82406814 43.1315702,8.63571429 C43.0230828,8.81355221 42.8766477,8.9648309 42.7028926,9.07857143 C42.4979374,9.20376519 42.2609112,9.26537674 42.021405,9.25571429 L40.482562,9.25571429 C40.3603594,9.26445863 40.2382433,9.23755206 40.1308264,9.17821429 C40.047349,9.1168823 40.00155,9.01623272 40.0099174,8.9125 L40.0099174,8.46964286 C39.9956191,8.40399489 39.9956191,8.33600511 40.0099174,8.27035714 C40.0312002,8.22434594 40.0656494,8.18579144 40.108843,8.15964286 L40.2517355,8.15964286 L41.7356198,8.15964286 C41.8690612,8.16416627 41.994762,8.0966398 42.0653719,7.9825 C42.1574383,7.81343291 42.1994023,7.62130474 42.186281,7.42892857 L42.186281,4.30678571 L43.3404132,4.30678571 L43.3733884,7.76107143 Z M42.0543802,1.99285714 C42.0366139,1.9051896 42.0366139,1.8148104 42.0543802,1.72714286 C42.0884781,1.64531839 42.1368758,1.5703205 42.1972727,1.50571429 C42.3941489,1.30904718 42.6896955,1.25213599 42.9447107,1.36178571 C43.1075963,1.43230944 43.2374219,1.56307635 43.307438,1.72714286 C43.4194975,1.98365099 43.36264,2.28321592 43.1645455,2.48 C43.1004043,2.54083479 43.0259462,2.58958341 42.9447107,2.62392857 C42.7346163,2.71277233 42.4943401,2.68997615 42.304411,2.56318021 C42.1144819,2.43638428 42.0000328,2.22236722 41.9994215,1.99285714 L42.0543802,1.99285714 Z" id="Shape"></path>
                    <path d="M48.5504959,7.75 C48.7786452,7.9085111 49.0368548,8.01782082 49.3089256,8.07107143 C49.5984499,8.12954122 49.8929785,8.15920763 50.1882645,8.15964286 L50.6389256,8.15964286 C50.772367,8.16416627 50.8980678,8.0966398 50.9686777,7.9825 C51.0607441,7.81343291 51.1027081,7.62130474 51.0895868,7.42892857 L51.0895868,5.02642857 L52.243719,5.02642857 L52.243719,7.76107143 C52.4690304,7.9151133 52.723486,8.02064879 52.991157,8.07107143 C53.2877702,8.13176534 53.5898127,8.16144655 53.8924793,8.15964286 L54.8267769,8.15964286 L54.8267769,4.30678571 L55.9809091,4.30678571 L55.9809091,9.32214286 L53.8814876,9.32214286 L53.4198347,9.32214286 C53.252902,9.30577229 53.0875125,9.27615652 52.9252066,9.23357143 C52.7548908,9.18642479 52.5893008,9.123415 52.4305785,9.04535714 C52.2862287,8.95924226 52.1532727,8.85508227 52.034876,8.73535714 C51.926276,8.91011553 51.7796988,9.05775546 51.6061983,9.16714286 C51.4039181,9.28908451 51.171362,9.35052508 50.9357025,9.34428571 L50.2432231,9.34428571 L49.7376033,9.34428571 C49.5704433,9.3238408 49.4050836,9.29052908 49.2429752,9.24464286 C49.0797356,9.19750515 48.9214405,9.13446965 48.7703306,9.05642857 C48.6201423,8.97769968 48.4799055,8.88105253 48.3526446,8.76857143 C48.2431637,8.94262149 48.0967642,9.09008246 47.9239669,9.20035714 C47.7185124,9.3243529 47.481847,9.38587065 47.2424793,9.3775 L45.1210744,9.3775 C44.9988718,9.38624434 44.8767557,9.35933778 44.7693388,9.3 C44.6858614,9.23866801 44.6400624,9.13801844 44.6484298,9.03428571 L44.6484298,8.59142857 C44.6341315,8.5257806 44.6341315,8.45779083 44.6484298,8.39214286 C44.6697126,8.34613166 44.7041618,8.30757715 44.7473554,8.28142857 L44.8902479,8.28142857 L46.9566942,8.28142857 C47.0901356,8.28595199 47.2158364,8.21842551 47.2864463,8.10428571 C47.3785127,7.93521862 47.4204767,7.74309046 47.4073554,7.55071429 L47.4073554,5.69071429 L48.5614876,5.69071429 L48.5504959,7.75 Z" id="Shape"></path>
                    <path d="M67.7640496,6.8975 C67.7099559,6.1897486 67.944076,5.49029 68.412562,4.96 C68.9703986,4.48196408 69.6940533,4.24696309 70.4240496,4.30678571 L72.1387603,4.30678571 L72.1387603,6.975 C72.1209608,7.18497513 72.1209608,7.39609629 72.1387603,7.60607143 C72.157211,7.7322716 72.2021787,7.85305493 72.2706612,7.96035714 C72.3225904,8.03972852 72.4003076,8.09843901 72.4904959,8.12642857 C72.5925777,8.14096683 72.6961826,8.14096683 72.7982645,8.12642857 L73.4138017,8.12642857 C73.5360043,8.11768423 73.6581203,8.14459079 73.7655372,8.20392857 C73.8490146,8.26526056 73.8948136,8.36591013 73.8864463,8.46964286 L73.8864463,8.9125 C73.9007446,8.97814797 73.9007446,9.04613774 73.8864463,9.11178571 C73.8651635,9.15779692 73.8307142,9.19635142 73.7875207,9.2225 L73.6446281,9.2225 L72.6553719,9.2225 C72.4462242,9.22263738 72.2384075,9.18899611 72.0398347,9.12285714 C71.8422541,9.05711435 71.6619201,8.94737267 71.5122314,8.80178571 C71.3475521,8.63955802 71.220011,8.44308085 71.1385124,8.22607143 C71.0363336,7.9424258 70.9878652,7.64199646 70.9956198,7.34035714 L70.9956198,5.41392857 L70.7208264,5.41392857 C70.4669165,5.41071998 70.2131947,5.42923892 69.9623967,5.46928571 C69.756534,5.50102899 69.5608409,5.58063189 69.3908264,5.70178571 C69.2270893,5.82682537 69.1014268,5.99559011 69.0280992,6.18892857 C68.9356135,6.45542024 68.8945735,6.73726729 68.9071901,7.01928571 L68.9071901,8.93464286 C68.9073802,9.34432222 68.817279,9.74893557 68.6433884,10.1192857 C68.4602429,10.5123269 68.1982675,10.8629035 67.8739669,11.1489286 C67.5116135,11.4665433 67.0942989,11.7142438 66.6428926,11.8796429 C66.110647,12.0716049 65.5484081,12.1653657 64.9831405,12.1564286 C64.4647981,12.1635973 63.9476684,12.1040682 63.4442975,11.9792857 C63.0586457,11.8752712 62.6888558,11.7188334 62.345124,11.5142857 C62.0476772,11.3415405 61.7803353,11.1208804 61.553719,10.8610714 C61.3577403,10.6323181 61.1915235,10.3793251 61.0590909,10.1082143 C60.9449404,9.87233 60.8600328,9.62319706 60.806281,9.36642857 C60.759459,9.15549733 60.7336835,8.94038069 60.7293388,8.72428571 C60.7280207,8.25491375 60.7984603,7.78813564 60.9381818,7.34035714 C61.001926,7.1381365 61.0828306,6.94181687 61.18,6.75357143 C61.2641931,6.58603323 61.363539,6.42666858 61.4767769,6.2775 L62.4330579,6.79785714 C62.3470102,6.9192368 62.2733579,7.04906274 62.2132231,7.18535714 C62.1447855,7.33262014 62.0860362,7.48425682 62.0373554,7.63928571 C61.9889789,7.79875155 61.9522419,7.96156648 61.927438,8.12642857 C61.9150621,8.28857028 61.9150621,8.45142972 61.927438,8.61357143 C61.9130552,8.77193127 61.9130552,8.93128302 61.927438,9.08964286 C61.9616388,9.27051891 62.0208371,9.44567471 62.1033058,9.61 C62.3051077,10.0109734 62.6285244,10.336735 63.0266116,10.54 C63.290755,10.6763314 63.5716516,10.7768471 63.8619835,10.8389286 C64.241606,10.9176386 64.6285672,10.9547593 65.0161157,10.9496429 C65.4099664,10.9563506 65.802623,10.9041143 66.1812397,10.7946429 C66.4920925,10.7045215 66.7856499,10.5622929 67.0495868,10.3739286 C67.2723448,10.2156285 67.4595871,10.0119407 67.5991736,9.77607143 C67.7207091,9.56393239 67.7851218,9.32349586 67.7860331,9.07857143 L67.7640496,6.8975 Z" id="Shape"></path>
                    <path d="M76.348595,7.73892857 C76.5598662,7.88185752 76.794173,7.98674891 77.0410744,8.04892857 C77.3544634,8.12217266 77.6757173,8.15564677 77.9973554,8.14857143 L77.9973554,8.14857143 C78.119558,8.13982709 78.241674,8.16673365 78.3490909,8.22607143 C78.4325684,8.28740341 78.4783674,8.38805299 78.47,8.49178571 L78.47,8.93464286 C78.4842983,9.00029083 78.4842983,9.0682806 78.47,9.13392857 C78.4487172,9.17993977 78.4142679,9.21849428 78.3710744,9.24464286 L78.2281818,9.24464286 L77.9863636,9.24464286 C77.6124114,9.2521632 77.2401443,9.19216861 76.8871901,9.0675 C76.6112674,8.96428969 76.3547958,8.81453258 76.1287603,8.62464286 C76.0231207,8.80469577 75.8761083,8.95657094 75.7000826,9.0675 C75.4914623,9.1935859 75.2506724,9.25518228 75.0076033,9.24464286 L73.4687603,9.24464286 C73.3465577,9.2533872 73.2244417,9.22648064 73.1170248,9.16714286 C73.0335473,9.10581087 72.9877483,9.0051613 72.9961157,8.90142857 L72.9961157,8.45857143 C72.9818174,8.39292346 72.9818174,8.32493369 72.9961157,8.25928571 C73.0173985,8.21327451 73.0518478,8.17472001 73.0950413,8.14857143 L73.2379339,8.14857143 L74.7218182,8.14857143 C74.8552596,8.15309484 74.9809604,8.08556837 75.0515702,7.97142857 C75.1436367,7.80236148 75.1856006,7.61023331 75.1724793,7.41785714 L75.1724793,-1.2586757e-13 L76.3266116,-1.2586757e-13 L76.348595,7.73892857 Z" id="Shape"></path>
                    <path d="M83.1304959,5.41392857 L82.833719,5.33642857 L82.4929752,5.28107143 L82.1412397,5.28107143 L81.8334711,5.28107143 C81.6810271,5.28344483 81.5295366,5.3057749 81.3828099,5.3475 C81.2254192,5.38847196 81.0790105,5.46409771 80.9541322,5.56892857 C80.8177406,5.68316028 80.7087681,5.82698708 80.6353719,5.98964286 C80.5461844,6.19525797 80.5048285,6.41868403 80.5144628,6.64285714 C80.5121381,6.86285873 80.5532369,7.08113278 80.6353719,7.285 C80.715379,7.47799581 80.8352851,7.65161053 80.9871074,7.79428571 C81.143202,7.93960525 81.326229,8.05247499 81.5257025,8.12642857 C81.7471426,8.20952297 81.9818881,8.25080746 82.2181818,8.24821429 L83.7790083,8.24821429 L83.7790083,9.41071429 L78.0633058,9.41071429 C77.9411032,9.41945863 77.8189871,9.39255206 77.7115702,9.33321429 C77.6280928,9.2718823 77.5822938,9.17123272 77.5906612,9.0675 L77.5906612,8.62464286 C77.5763629,8.55899489 77.5763629,8.49100511 77.5906612,8.42535714 C77.611944,8.37934594 77.6463933,8.34079144 77.6895868,8.31464286 L77.8324793,8.31464286 L79.7340496,8.31464286 C79.6232797,8.07736441 79.5385094,7.82863447 79.4812397,7.57285714 C79.4248578,7.33712424 79.3953558,7.09568267 79.3933058,6.85321429 C79.3912465,6.49766266 79.4546021,6.14480362 79.5801653,5.8125 C79.6998824,5.49675919 79.8790328,5.2072884 80.1077686,4.96 C80.3376161,4.71485212 80.6142848,4.51902669 80.921157,4.38428571 C81.2502485,4.23962906 81.6063584,4.16789071 81.9653719,4.17392857 L82.2731405,4.17392857 L82.624876,4.17392857 L82.9546281,4.17392857 L83.207438,4.24035714 L83.1304959,5.41392857 Z" id="Shape"></path>
                    <path d="M95.1554545,6.8975 C95.1013609,6.1897486 95.3354809,5.49029 95.8039669,4.96 C96.3618035,4.48196408 97.0854582,4.24696309 97.8154545,4.30678571 L99.5301653,4.30678571 L99.5301653,6.975 C99.5123658,7.18497513 99.5123658,7.39609629 99.5301653,7.60607143 C99.5486159,7.7322716 99.5935837,7.85305493 99.6620661,7.96035714 C99.7139954,8.03972852 99.7917126,8.09843901 99.8819008,8.12642857 C99.9839827,8.14096683 100.087588,8.14096683 100.189669,8.12642857 L100.805207,8.12642857 C100.927409,8.11768423 101.049525,8.14459079 101.156942,8.20392857 C101.24042,8.26526056 101.286219,8.36591013 101.277851,8.46964286 L101.277851,8.9125 C101.29215,8.97814797 101.29215,9.04613774 101.277851,9.11178571 C101.256568,9.15779692 101.222119,9.19635142 101.178926,9.2225 L101.036033,9.2225 L100.046777,9.2225 C99.8376292,9.22263738 99.6298125,9.18899611 99.4312397,9.12285714 C99.233659,9.05711435 99.0533251,8.94737267 98.9036364,8.80178571 C98.7389571,8.63955802 98.6114159,8.44308085 98.5299174,8.22607143 C98.4277386,7.9424258 98.3792702,7.64199646 98.3870248,7.34035714 L98.3870248,5.41392857 L98.1561983,5.41392857 C97.9022884,5.41071998 97.6485666,5.42923892 97.3977686,5.46928571 C97.1919059,5.50102899 96.9962128,5.58063189 96.8261983,5.70178571 C96.6624612,5.82682537 96.5367987,5.99559011 96.4634711,6.18892857 C96.3709854,6.45542024 96.3299454,6.73726729 96.342562,7.01928571 L96.342562,8.93464286 C96.3427521,9.34432222 96.2526509,9.74893557 96.0787603,10.1192857 C95.8956148,10.5123269 95.6336394,10.8629035 95.3093388,11.1489286 C94.9469854,11.4665433 94.5296708,11.7142438 94.0782645,11.8796429 C93.5460189,12.0716049 92.98378,12.1653657 92.4185124,12.1564286 C91.90017,12.1635973 91.3830403,12.1040682 90.8796694,11.9792857 C90.4940176,11.8752712 90.1242277,11.7188334 89.7804959,11.5142857 C89.4830491,11.3415405 89.2157072,11.1208804 88.9890909,10.8610714 C88.7931122,10.6323181 88.6268954,10.3793251 88.4944628,10.1082143 C88.3803123,9.87233 88.2954047,9.62319706 88.2416529,9.36642857 C88.1948309,9.15549733 88.1690554,8.94038069 88.1647107,8.72428571 C88.1633926,8.25491375 88.2338322,7.78813564 88.3735537,7.34035714 C88.4372979,7.1381365 88.5182025,6.94181687 88.6153719,6.75357143 C88.699565,6.58603323 88.7989109,6.42666858 88.9121488,6.2775 L89.8684298,6.79785714 C89.7823821,6.9192368 89.7087298,7.04906274 89.648595,7.18535714 C89.5801574,7.33262014 89.5214081,7.48425682 89.4727273,7.63928571 C89.4243508,7.79875155 89.3876138,7.96156648 89.3628099,8.12642857 C89.350434,8.28857028 89.350434,8.45142972 89.3628099,8.61357143 C89.3484271,8.77193127 89.3484271,8.93128302 89.3628099,9.08964286 C89.3970107,9.27051891 89.456209,9.44567471 89.5386777,9.61 C89.7404796,10.0109734 90.0638963,10.336735 90.4619835,10.54 C90.7261269,10.6763314 91.0070235,10.7768471 91.2973554,10.8389286 C91.6769779,10.9176386 92.0639391,10.9547593 92.4514876,10.9496429 C92.8453383,10.9563506 93.2379949,10.9041143 93.6166116,10.7946429 C93.9274644,10.7045215 94.2210218,10.5622929 94.4849587,10.3739286 C94.7077167,10.2156285 94.894959,10.0119407 95.0345455,9.77607143 C95.156081,9.56393239 95.2204937,9.32349586 95.221405,9.07857143 L95.1554545,6.8975 Z M90.813719,13.7507143 C90.7959528,13.6630467 90.7959528,13.5726675 90.813719,13.485 C90.8478169,13.4031755 90.8962147,13.3281776 90.9566116,13.2635714 C91.1534878,13.0669043 91.4490343,13.0099931 91.7040496,13.1196429 C91.8669351,13.1901666 91.9967608,13.3209335 92.0667769,13.485 C92.1788364,13.7415081 92.1219788,14.0410731 91.9238843,14.2378571 C91.8597431,14.2986919 91.7852851,14.3474406 91.7040496,14.3817857 C91.4939552,14.4706295 91.2536789,14.4478333 91.0637498,14.3210374 C90.8738207,14.1942414 90.7593716,13.9802244 90.7587603,13.7507143 L90.813719,13.7507143 Z M92.6493388,13.7507143 C92.6315726,13.6630467 92.6315726,13.5726675 92.6493388,13.485 C92.6834368,13.4031755 92.7318345,13.3281776 92.7922314,13.2635714 C92.9891076,13.0669043 93.2846542,13.0099931 93.5396694,13.1196429 C93.702555,13.1901666 93.8323806,13.3209335 93.9023967,13.485 C94.0144562,13.7415081 93.9575987,14.0410731 93.7595041,14.2378571 C93.695363,14.2986919 93.6209049,14.3474406 93.5396694,14.3817857 C93.329575,14.4706295 93.0892988,14.4478333 92.8993696,14.3210374 C92.7094405,14.1942414 92.5949915,13.9802244 92.5943802,13.7507143 L92.6493388,13.7507143 Z" id="Shape"></path>
                    <path d="M100.838182,9.32214286 C100.715979,9.3308872 100.593863,9.30398064 100.486446,9.24464286 C100.402969,9.18331087 100.35717,9.0826613 100.365537,8.97892857 L100.365537,8.53607143 C100.351239,8.47042346 100.351239,8.40243369 100.365537,8.33678571 C100.38682,8.29077451 100.421269,8.25222001 100.464463,8.22607143 L100.607355,8.22607143 L102.904628,8.22607143 L102.904628,4.30678571 L104.05876,4.30678571 L104.05876,9.32214286 L100.838182,9.32214286 Z M102.904628,1.98178571 C102.886862,1.89411817 102.886862,1.80373897 102.904628,1.71607143 C102.938726,1.63424696 102.987124,1.55924907 103.047521,1.49464286 C103.244397,1.29797576 103.539943,1.24106456 103.794959,1.35071429 C103.957844,1.42123801 104.08767,1.55200492 104.157686,1.71607143 C104.269745,1.97257956 104.212888,2.2721445 104.014793,2.46892857 C103.950652,2.52976336 103.876194,2.57851199 103.794959,2.61285714 C103.584864,2.7017009 103.344588,2.67890472 103.154659,2.55210878 C102.96473,2.42531285 102.850281,2.21129579 102.849669,1.98178571 L102.904628,1.98178571 Z" id="Shape"></path>
                    <path d="M109.103967,9.32214286 C108.646165,9.33387389 108.190535,9.2548773 107.762975,9.08964286 C107.431539,8.9597072 107.131667,8.75960149 106.883636,8.50285714 C106.665288,8.2683642 106.500253,7.9887925 106.4,7.68357143 C106.17339,7.05029685 106.17339,6.35720315 106.4,5.72392857 C106.522587,5.40121861 106.709644,5.10729392 106.949587,4.86035714 C107.196917,4.61067649 107.492454,4.41473574 107.817934,4.28464286 C108.167919,4.14548002 108.540839,4.07411154 108.917107,4.07428571 C109.092653,4.05912838 109.269165,4.05912838 109.444711,4.07428571 C109.634838,4.108754 109.819625,4.16831459 109.994298,4.25142857 C110.178599,4.34030276 110.348954,4.45593961 110.499917,4.59464286 C110.668149,4.75080303 110.809318,4.93415655 110.917603,5.13714286 C111.048215,5.38472052 111.144379,5.64922577 111.203388,5.92321429 C111.283577,6.28655106 111.320476,6.65822117 111.313306,7.03035714 L111.313306,8.1375 L112.709256,8.1375 C112.831459,8.12875566 112.953575,8.15566222 113.060992,8.215 C113.144469,8.27633199 113.190268,8.37698156 113.181901,8.48071429 L113.181901,8.92357143 C113.196199,8.9892194 113.196199,9.05720917 113.181901,9.12285714 C113.160618,9.16886834 113.126169,9.20742285 113.082975,9.23357143 L112.940083,9.23357143 L111.280331,9.23357143 C111.182404,9.6665508 110.995155,10.0739414 110.730744,10.4292857 C110.481954,10.7590999 110.172155,11.0373086 109.81843,11.2485714 C109.43693,11.4714241 109.026215,11.6391373 108.598347,11.7467857 C108.118229,11.8691963 107.629494,11.954327 107.136446,12.0014286 L107.015537,10.8942857 C107.7471,10.8692308 108.465616,10.6920689 109.12595,10.3739286 C109.596209,10.1589588 109.957941,9.75856959 110.126198,9.26678571 L109.103967,9.32214286 Z M110.20314,8.15964286 L110.20314,7.42892857 C110.211992,7.05610313 110.171329,6.68375863 110.082231,6.32178571 C110.020862,6.07238263 109.908556,5.83860168 109.752479,5.63535714 C109.632378,5.48342398 109.472464,5.36837217 109.290826,5.30321429 C109.120917,5.24496193 108.942705,5.21504452 108.763223,5.21464286 C108.574481,5.21374426 108.387517,5.25140803 108.213636,5.32535714 C108.043757,5.39620323 107.890307,5.50175825 107.762975,5.63535714 C107.633182,5.77648095 107.532328,5.94202723 107.466198,6.1225 C107.39115,6.32035782 107.353857,6.53070754 107.356281,6.7425 C107.353582,6.93075792 107.383335,7.11805991 107.444215,7.29607143 C107.504158,7.46986864 107.606157,7.62587908 107.740992,7.75 C107.893988,7.8885518 108.073549,7.99405513 108.268595,8.06 C108.519959,8.14502305 108.783886,8.18620962 109.049008,8.18178571 L110.20314,8.15964286 Z" id="Shape"></path>
                    <path d="M115.545124,7.84964286 C115.344125,7.70046993 115.159844,7.52970226 114.995537,7.34035714 C114.819669,7.13369048 114.654793,6.93071429 114.500909,6.73142857 L114.083223,6.15571429 C113.988243,6.01706956 113.885486,5.88399618 113.775455,5.75714286 C113.795736,5.65253298 113.821418,5.54905923 113.852397,5.44714286 C113.852397,5.32904762 113.889036,5.21833333 113.962314,5.115 C113.999396,5.01599643 114.043476,4.91979754 114.094215,4.82714286 C114.123748,4.76157454 114.16909,4.70448574 114.226116,4.66107143 L114.709752,4.42857143 C114.917256,4.34088484 115.130214,4.26691844 115.347273,4.20714286 C115.600351,4.13688107 115.857254,4.08143122 116.116694,4.04107143 C116.407568,3.9952407 116.701627,3.97302636 116.996033,3.97464286 C117.23208,3.97435875 117.467623,3.99660099 117.699504,4.04107143 C117.923066,4.08005678 118.140922,4.14700307 118.348017,4.24035714 C118.527454,4.32057175 118.6884,4.43744367 118.820661,4.58357143 C118.942954,4.72005198 119.009676,4.89795032 119.007521,5.08178571 C119.002115,5.46471097 118.915939,5.84210238 118.754711,6.18892857 C118.631633,6.4565667 118.484461,6.71227914 118.315041,6.95285714 C118.085875,7.2813459 117.828405,7.58884574 117.54562,7.87178571 C117.662317,7.92414605 117.783799,7.96493383 117.908347,7.99357143 L118.391983,8.08214286 L118.963554,8.14857143 L119.590083,8.14857143 L120.128678,8.14857143 C120.25088,8.13982709 120.372996,8.16673365 120.480413,8.22607143 C120.563891,8.28740341 120.60969,8.38805299 120.601322,8.49178571 L120.601322,8.93464286 C120.615621,9.00029083 120.615621,9.0682806 120.601322,9.13392857 C120.58004,9.17993977 120.54559,9.21849428 120.502397,9.24464286 L120.359504,9.24464286 L119.260331,9.24464286 C118.935888,9.24513803 118.612093,9.21548863 118.293058,9.15607143 C118.018012,9.1070593 117.746336,9.04049668 117.479669,8.95678571 C117.265381,8.89059117 117.056014,8.80919718 116.85314,8.71321429 L116.446446,8.49178571 C116.270579,8.5877381 116.080055,8.68369048 115.874876,8.77964286 C115.660423,8.8749154 115.440138,8.95627201 115.215372,9.02321429 C114.97004,9.09474109 114.720373,9.15021397 114.467934,9.18928571 C114.195242,9.23272102 113.919633,9.2549296 113.643554,9.25571429 L112.808182,9.25571429 C112.685979,9.26445863 112.563863,9.23755206 112.456446,9.17821429 C112.372969,9.1168823 112.32717,9.01623272 112.335537,8.9125 L112.335537,8.46964286 C112.321239,8.40399489 112.321239,8.33600511 112.335537,8.27035714 C112.35682,8.22434594 112.391269,8.18579144 112.434463,8.15964286 L112.577355,8.15964286 L113.676529,8.15964286 L114.336033,8.15964286 L114.88562,8.09321429 L115.292314,7.99357143 C115.38489,7.96219342 115.470688,7.9133474 115.545124,7.84964286 Z M117.86438,5.71285714 C117.86518,5.61350199 117.834363,5.51650117 117.776446,5.43607143 C117.705827,5.34065169 117.615913,5.26140737 117.512645,5.20357143 C117.382091,5.12822496 117.241407,5.07228906 117.094959,5.0375 C116.911405,4.9928789 116.723203,4.97057701 116.53438,4.97107143 C116.268214,4.97237379 116.002933,5.00206315 115.742975,5.05964286 C115.421357,5.13383417 115.108249,5.24143395 114.808678,5.38071429 C114.887914,5.52985362 114.976008,5.67404393 115.072479,5.8125 C115.205666,6.00444486 115.348756,6.18922241 115.501157,6.36607143 C115.662369,6.55797619 115.834573,6.7425 116.017769,6.91964286 C116.182044,7.08514593 116.362491,7.2335176 116.556364,7.3625 C116.755468,7.24469971 116.939958,7.10347013 117.10595,6.94178571 C117.257087,6.79807528 117.396748,6.6425942 117.523636,6.47678571 C117.62708,6.34307542 117.71555,6.1982695 117.787438,6.045 C117.832127,5.93623109 117.854559,5.81949502 117.853388,5.70178571 L117.86438,5.71285714 Z" id="Shape"></path>
                    <path d="M120.106694,9.32214286 C119.984492,9.3308872 119.862376,9.30398064 119.754959,9.24464286 C119.671481,9.18331087 119.625682,9.0826613 119.63405,8.97892857 L119.63405,8.53607143 C119.619751,8.47042346 119.619751,8.40243369 119.63405,8.33678571 C119.655332,8.29077451 119.689782,8.25222001 119.732975,8.22607143 L119.875868,8.22607143 L122.17314,8.22607143 L122.17314,4.30678571 L123.327273,4.30678571 L123.327273,9.32214286 L120.106694,9.32214286 Z M122.129174,11.2707143 C122.111407,11.1830467 122.111407,11.0926675 122.129174,11.005 C122.163271,10.9231755 122.211669,10.8481776 122.272066,10.7835714 C122.468942,10.5869043 122.764489,10.5299931 123.019504,10.6396429 C123.18239,10.7101666 123.312215,10.8409335 123.382231,11.005 C123.494291,11.2615081 123.437433,11.5610731 123.239339,11.7578571 C123.175198,11.8186919 123.10074,11.8674406 123.019504,11.9017857 C122.80941,11.9906295 122.569133,11.9678333 122.379204,11.8410374 C122.189275,11.7142414 122.074826,11.5002244 122.074215,11.2707143 L122.129174,11.2707143 Z" id="Shape"></path>
                    <path d="M125.558595,0.0110714286 L126.712727,0.0110714286 L126.712727,6.975 C126.701197,7.16672904 126.701197,7.35898525 126.712727,7.55071429 C126.722478,7.6777036 126.756046,7.801679 126.811653,7.91607143 C126.854894,7.99929782 126.924543,8.0655544 127.009504,8.10428571 C127.1183,8.12665454 127.230461,8.12665454 127.339256,8.10428571 L127.767934,8.10428571 C127.890137,8.09554137 128.012253,8.12244794 128.119669,8.18178571 C128.203147,8.2431177 128.248946,8.34376728 128.240579,8.4475 L128.240579,8.89035714 C128.254877,8.95600511 128.254877,9.02399489 128.240579,9.08964286 C128.219296,9.13565406 128.184846,9.17420856 128.141653,9.20035714 L127.99876,9.20035714 L127.218347,9.20035714 C126.965416,9.20663977 126.714146,9.15753243 126.481901,9.05642857 C126.280928,8.96641994 126.103915,8.8298524 125.965289,8.65785714 C125.826896,8.48105828 125.725898,8.27759653 125.668512,8.06 C125.601941,7.81847338 125.568654,7.56887433 125.569587,7.31821429 L125.558595,0.0110714286 Z" id="Shape"></path>
                    <path d="M127.811901,9.32214286 C127.689698,9.3308872 127.567582,9.30398064 127.460165,9.24464286 C127.376688,9.18331087 127.330889,9.0826613 127.339256,8.97892857 L127.339256,8.53607143 C127.324958,8.47042346 127.324958,8.40243369 127.339256,8.33678571 C127.360539,8.29077451 127.394988,8.25222001 127.438182,8.22607143 L127.581074,8.22607143 L129.878347,8.22607143 L129.878347,4.30678571 L131.032479,4.30678571 L131.032479,9.32214286 L127.811901,9.32214286 Z M128.779174,1.98178571 C128.761407,1.89411817 128.761407,1.80373897 128.779174,1.71607143 C128.813271,1.63424696 128.861669,1.55924907 128.922066,1.49464286 C129.118942,1.29797576 129.414489,1.24106456 129.669504,1.35071429 C129.83239,1.42123801 129.962215,1.55200492 130.032231,1.71607143 C130.144291,1.97257956 130.087433,2.2721445 129.889339,2.46892857 C129.825198,2.52976336 129.75074,2.57851199 129.669504,2.61285714 C129.45941,2.7017009 129.219133,2.67890472 129.029204,2.55210878 C128.839275,2.42531285 128.724826,2.21129579 128.724215,1.98178571 L128.779174,1.98178571 Z M130.614793,1.98178571 C130.597027,1.89411817 130.597027,1.80373897 130.614793,1.71607143 C130.648891,1.63424696 130.697289,1.55924907 130.757686,1.49464286 C130.954562,1.29797576 131.250109,1.24106456 131.505124,1.35071429 C131.66801,1.42123801 131.797835,1.55200492 131.867851,1.71607143 C131.979911,1.97257956 131.923053,2.2721445 131.724959,2.46892857 C131.660818,2.52976336 131.586359,2.57851199 131.505124,2.61285714 C131.29503,2.7017009 131.054753,2.67890472 130.864824,2.55210878 C130.674895,2.42531285 130.560446,2.21129579 130.559835,1.98178571 L130.614793,1.98178571 Z" id="Shape"></path>
                    <path d="M20.6754545,22.8403571 C20.6213609,22.1326057 20.8554809,21.4331471 21.3239669,20.9028571 C21.8818035,20.4248212 22.6054582,20.1898202 23.3354545,20.2496429 L25.0501653,20.2496429 L25.0501653,22.9178571 C25.0323658,23.1278323 25.0323658,23.3389534 25.0501653,23.5489286 C25.0686159,23.6751287 25.1135837,23.7959121 25.1820661,23.9032143 C25.2339954,23.9825857 25.3117126,24.0412961 25.4019008,24.0692857 C25.5039827,24.083824 25.6075876,24.083824 25.7096694,24.0692857 L26.3252066,24.0692857 C26.4474092,24.0605414 26.5695253,24.0874479 26.6769421,24.1467857 C26.7604196,24.2081177 26.8062186,24.3087673 26.7978512,24.4125 L26.7978512,24.8553571 C26.8121495,24.9210051 26.8121495,24.9889949 26.7978512,25.0546429 C26.7765684,25.1006541 26.7421191,25.1392086 26.6989256,25.1653571 L26.5560331,25.1653571 L25.5667769,25.1653571 C25.3576292,25.1654945 25.1498125,25.1318533 24.9512397,25.0657143 C24.753659,24.9999715 24.5733251,24.8902298 24.4236364,24.7446429 C24.2589571,24.5824152 24.1314159,24.385938 24.0499174,24.1689286 C23.9477386,23.8852829 23.8992702,23.5848536 23.9070248,23.2832143 L23.9070248,21.3567857 L23.6761983,21.3567857 C23.4222884,21.3535771 23.1685666,21.3720961 22.9177686,21.4121429 C22.7119059,21.4438861 22.5162128,21.523489 22.3461983,21.6446429 C22.1824612,21.7696825 22.0567987,21.9384473 21.9834711,22.1317857 C21.8909854,22.3982774 21.8499454,22.6801244 21.862562,22.9621429 L21.862562,24.8775 C21.8627521,25.2871794 21.7726509,25.6917927 21.5987603,26.0621429 C21.4156148,26.455184 21.1536394,26.8057606 20.8293388,27.0917857 C20.4669854,27.4094004 20.0496708,27.657101 19.5982645,27.8225 C19.0660189,28.0144621 18.50378,28.1082229 17.9385124,28.0992857 C17.42017,28.1064544 16.9030403,28.0469254 16.3996694,27.9221429 C16.0140176,27.8181284 15.6442277,27.6616906 15.3004959,27.4571429 C15.0030491,27.2843977 14.7357072,27.0637375 14.5090909,26.8039286 C14.3131122,26.5751753 14.1468954,26.3221822 14.0144628,26.0510714 C13.9003123,25.8151871 13.8154047,25.5660542 13.7616529,25.3092857 C13.7148309,25.0983545 13.6890554,24.8832378 13.6847107,24.6671429 C13.6833926,24.1977709 13.7538322,23.7309928 13.8935537,23.2832143 C13.9572979,23.0809936 14.0382025,22.884674 14.1353719,22.6964286 C14.219565,22.5288904 14.3189109,22.3695257 14.4321488,22.2203571 L15.3884298,22.7407143 C15.3023821,22.8620939 15.2287298,22.9919199 15.168595,23.1282143 C15.1001574,23.2754773 15.0414081,23.427114 14.9927273,23.5821429 C14.9443508,23.7416087 14.9076138,23.9044236 14.8828099,24.0692857 C14.870434,24.2314274 14.870434,24.3942869 14.8828099,24.5564286 C14.8684271,24.7147884 14.8684271,24.8741402 14.8828099,25.0325 C14.9170107,25.2133761 14.976209,25.3885319 15.0586777,25.5528571 C15.2604796,25.9538306 15.5838963,26.2795921 15.9819835,26.4828571 C16.2461269,26.6191885 16.5270235,26.7197043 16.8173554,26.7817857 C17.1969779,26.8604958 17.5839391,26.8976164 17.9714876,26.8925 C18.3653383,26.8992077 18.7579949,26.8469714 19.1366116,26.7375 C19.4474644,26.6473786 19.7410218,26.50515 20.0049587,26.3167857 C20.2277167,26.1584856 20.414959,25.9547978 20.5545455,25.7189286 C20.676081,25.5067895 20.7404937,25.266353 20.741405,25.0214286 L20.6754545,22.8403571 Z M16.333719,29.6935714 C16.3159528,29.6059039 16.3159528,29.5155247 16.333719,29.4278571 C16.3678169,29.3460327 16.4162147,29.2710348 16.4766116,29.2064286 C16.6734878,29.0097615 16.9690343,28.9528503 17.2240496,29.0625 C17.3869351,29.1330237 17.5167608,29.2637906 17.5867769,29.4278571 C17.6988364,29.6843653 17.6419788,29.9839302 17.4438843,30.1807143 C17.3797431,30.2415491 17.3052851,30.2902977 17.2240496,30.3246429 C17.0139552,30.4134866 16.7736789,30.3906904 16.5837498,30.2638945 C16.3938207,30.1370986 16.2793716,29.9230815 16.2787603,29.6935714 L16.333719,29.6935714 Z M18.1693388,29.6935714 C18.1515726,29.6059039 18.1515726,29.5155247 18.1693388,29.4278571 C18.2034368,29.3460327 18.2518345,29.2710348 18.3122314,29.2064286 C18.5091076,29.0097615 18.8046542,28.9528503 19.0596694,29.0625 C19.222555,29.1330237 19.3523806,29.2637906 19.4223967,29.4278571 C19.5344562,29.6843653 19.4775987,29.9839302 19.2795041,30.1807143 C19.215363,30.2415491 19.1409049,30.2902977 19.0596694,30.3246429 C18.849575,30.4134866 18.6092988,30.3906904 18.4193696,30.2638945 C18.2294405,30.1370986 18.1149915,29.9230815 18.1143802,29.6935714 L18.1693388,29.6935714 Z" id="Shape"></path>
                    <path d="M28.347686,24.3792857 C28.2688218,24.5301379 28.1729247,24.6713113 28.0619008,24.8 C27.9674515,24.9094977 27.856108,25.0029567 27.7321488,25.0767857 C27.6122293,25.1448523 27.4823947,25.1934262 27.347438,25.2207143 C27.1903048,25.237004 27.0319266,25.237004 26.8747934,25.2207143 L26.3691736,25.2207143 C26.2469709,25.2294586 26.1248549,25.2025521 26.017438,25.1432143 C25.9339606,25.0818823 25.8881616,24.9812327 25.8965289,24.8775 L25.8965289,24.4346429 C25.8822306,24.3689949 25.8822306,24.3010051 25.8965289,24.2353571 C25.9178117,24.1893459 25.952261,24.1507914 25.9954545,24.1246429 L26.1383471,24.1246429 L26.6219835,24.1246429 C26.8727278,24.1287553 27.1198077,24.0636659 27.3364463,23.9364286 C27.5484499,23.8054753 27.6990422,23.5939159 27.7541322,23.3496429 C27.859842,22.939984 27.9995628,22.5400035 28.1718182,22.1539286 C28.305876,21.8549825 28.467815,21.5695345 28.6554545,21.3014286 C28.8023829,21.0879616 28.9760176,20.8944623 29.1720661,20.7257143 C29.3299923,20.5908695 29.5034407,20.4756379 29.6886777,20.3825 C29.8454598,20.305164 30.0118125,20.249311 30.1833058,20.2164286 C30.3295767,20.2033971 30.4767043,20.2033971 30.6229752,20.2164286 C30.8880097,20.2132692 31.1517282,20.2544232 31.4033884,20.3382143 C31.6282304,20.4151526 31.8396574,20.5272368 32.0299174,20.6703571 C32.2133274,20.8087238 32.376183,20.9727602 32.5135537,21.1575 C32.6472452,21.3365808 32.7614799,21.5295896 32.8542975,21.7332143 C32.9420376,21.9283389 33.0083805,22.1325231 33.0521488,22.3421429 C33.093893,22.534969 33.115991,22.7315828 33.1180992,22.9289286 C33.1159401,23.1079999 33.0938179,23.2862604 33.0521488,23.4603571 C33.0070104,23.6517685 32.9406428,23.8374593 32.8542975,24.0139286 C32.76593,24.2003165 32.6551848,24.3750754 32.5245455,24.5342857 C32.3846596,24.7007664 32.2217889,24.8461757 32.0409091,24.9660714 C31.8477118,25.0960548 31.636619,25.1967711 31.4143802,25.265 C31.1575466,25.3414998 30.8907853,25.3788186 30.6229752,25.3757143 C30.3602962,25.3769873 30.0983735,25.3472609 29.842562,25.2871429 C29.6160074,25.2354499 29.395094,25.1612782 29.1830579,25.0657143 C29.0006603,24.9806804 28.827527,24.8767894 28.6664463,24.7557143 C28.5481597,24.6411036 28.441389,24.5150166 28.347686,24.3792857 Z M32.1398347,23.0285714 C32.1237275,22.632686 31.9980927,22.2492141 31.7771074,21.9214286 C31.6548523,21.7405931 31.4978817,21.5862489 31.3154545,21.4675 C31.1116976,21.3384244 30.8745884,21.2729392 30.6339669,21.2792857 C30.3924855,21.2781838 30.1558317,21.3473878 29.9524793,21.4785714 C29.7380072,21.6196713 29.5516105,21.7999095 29.4028926,22.01 C29.2383793,22.2421357 29.1053076,22.4953159 29.0071901,22.7628571 C28.8998871,23.0454049 28.8225157,23.3385791 28.7763636,23.6375 C28.8462021,23.7178348 28.9324366,23.7820355 29.0291736,23.8257143 C29.170258,23.8977039 29.3173878,23.9569825 29.468843,24.0028571 C29.6416153,24.0587934 29.8178666,24.1031757 29.9964463,24.1357143 C30.1756096,24.1520962 30.355878,24.1520962 30.5350413,24.1357143 C30.7581352,24.1548746 30.9824433,24.1548746 31.2055372,24.1357143 C31.3870734,24.1090957 31.5621948,24.0490477 31.7221488,23.9585714 C31.8626711,23.8786497 31.9772031,23.7594419 32.0519008,23.6153571 C32.1246262,23.4289968 32.1510396,23.2275596 32.128843,23.0285714 L32.1398347,23.0285714 Z" id="Shape"></path>
                    <path d="M37.8005785,25.265 C37.3427762,25.276731 36.8871471,25.1977344 36.4595868,25.0325 C36.1281504,24.9025643 35.8282782,24.7024586 35.5802479,24.4457143 C35.3618996,24.2112213 35.1968643,23.9316496 35.0966116,23.6264286 C34.8700012,22.993154 34.8700012,22.3000603 35.0966116,21.6667857 C35.2191988,21.3440758 35.4062558,21.0501511 35.6461983,20.8032143 C35.8935289,20.5535336 36.1890655,20.3575929 36.5145455,20.2275 C36.8645306,20.0883372 37.2374504,20.0169687 37.613719,20.0171429 C37.7892649,20.0019855 37.9657764,20.0019855 38.1413223,20.0171429 C38.3314494,20.0516111 38.5162365,20.1111717 38.6909091,20.1942857 C38.8752109,20.2831599 39.0455659,20.3987967 39.1965289,20.5375 C39.3647606,20.6936602 39.5059296,20.8770137 39.6142149,21.08 C39.7448269,21.3275777 39.8409908,21.5920829 39.9,21.8660714 C39.9801882,22.2294082 40.0170877,22.6010783 40.0099174,22.9732143 L40.0099174,24.0803571 L41.4058678,24.0803571 C41.5280704,24.0716128 41.6501864,24.0985194 41.7576033,24.1578571 C41.8410808,24.2191891 41.8868798,24.3198387 41.8785124,24.4235714 L41.8785124,24.8664286 C41.8928107,24.9320765 41.8928107,25.0000663 41.8785124,25.0657143 C41.8572296,25.1117255 41.8227803,25.15028 41.7795868,25.1764286 L41.6366942,25.1764286 L39.9769421,25.1764286 C39.8790156,25.6094079 39.6917665,26.0167985 39.4273554,26.3721429 C39.1785655,26.701957 38.8687667,26.9801658 38.5150413,27.1914286 C38.1335416,27.4142812 37.7228267,27.5819945 37.2949587,27.6896429 C36.8148402,27.8120534 36.326106,27.8971842 35.8330579,27.9442857 L35.7121488,26.8371429 C36.4437118,26.8120879 37.1622274,26.6349261 37.822562,26.3167857 C38.2928211,26.101816 38.6545526,25.7014267 38.8228099,25.2096429 L37.8005785,25.265 Z M38.8997521,24.1025 L38.8997521,23.3717857 C38.9086036,22.9989603 38.8679405,22.6266158 38.778843,22.2646429 C38.7174736,22.0152398 38.605168,21.7814588 38.4490909,21.5782143 C38.3289891,21.4262811 38.169076,21.3112293 37.987438,21.2460714 C37.8175287,21.1878191 37.6393164,21.1579017 37.4598347,21.1575 C37.2710921,21.1566014 37.0841288,21.1942652 36.9102479,21.2682143 C36.7403689,21.3390604 36.5869187,21.4446154 36.4595868,21.5782143 C36.329794,21.7193381 36.22894,21.8848844 36.1628099,22.0653571 C36.0877611,22.263215 36.0504691,22.4735647 36.0528926,22.6853571 C36.0501937,22.8736151 36.0799463,23.060917 36.1408264,23.2389286 C36.2007696,23.4127258 36.3027687,23.5687362 36.4376033,23.6928571 C36.5905999,23.8314089 36.7701609,23.9369123 36.9652066,24.0028571 C37.2165706,24.0878802 37.4804976,24.1290668 37.7456198,24.1246429 L38.8997521,24.1025 Z" id="Shape"></path>
                    <path d="M41.4828099,25.265 C41.3606073,25.2737443 41.2384912,25.2468378 41.1310744,25.1875 C41.0475969,25.126168 41.0017979,25.0255184 41.0101653,24.9217857 L41.0101653,24.4789286 C40.995867,24.4132806 40.995867,24.3452908 41.0101653,24.2796429 C41.0314481,24.2336317 41.0658974,24.1950772 41.1090909,24.1689286 L41.2519835,24.1689286 L43.5492562,24.1689286 L43.5492562,20.2496429 L44.7033884,20.2496429 L44.7033884,25.265 L41.4828099,25.265 Z M42.2961983,27.2135714 C42.2784321,27.1259039 42.2784321,27.0355247 42.2961983,26.9478571 C42.3302963,26.8660327 42.378694,26.7910348 42.4390909,26.7264286 C42.6359671,26.5297615 42.9315137,26.4728503 43.1865289,26.5825 C43.3494145,26.6530237 43.4792401,26.7837906 43.5492562,26.9478571 C43.6613157,27.2043653 43.6044582,27.5039302 43.4063636,27.7007143 C43.3422225,27.7615491 43.2677644,27.8102977 43.1865289,27.8446429 C42.9764345,27.9334866 42.7361583,27.9106904 42.5462292,27.7838945 C42.3563,27.6570986 42.241851,27.4430815 42.2412397,27.2135714 L42.2961983,27.2135714 Z M44.1318182,27.2135714 C44.1140519,27.1259039 44.1140519,27.0355247 44.1318182,26.9478571 C44.1659161,26.8660327 44.2143139,26.7910348 44.2747107,26.7264286 C44.471587,26.5297615 44.7671335,26.4728503 45.0221488,26.5825 C45.1850343,26.6530237 45.3148599,26.7837906 45.384876,26.9478571 C45.4969356,27.2043653 45.440078,27.5039302 45.2419835,27.7007143 C45.1778423,27.7615491 45.1033843,27.8102977 45.0221488,27.8446429 C44.8120543,27.9334866 44.5717781,27.9106904 44.381849,27.7838945 C44.1919199,27.6570986 44.0774708,27.4430815 44.0768595,27.2135714 L44.1318182,27.2135714 Z" id="Shape"></path>
                    <path d="M56.5524793,24.1135714 C56.5612604,23.9623912 56.5612604,23.8108231 56.5524793,23.6596429 C56.5524793,23.4825 56.523168,23.2942857 56.4645455,23.095 C56.4059229,22.8957143 56.358292,22.6964286 56.3216529,22.4971429 C56.2651385,22.3078713 56.1953486,22.122882 56.1128099,21.9435714 L57.2119835,21.6225 C57.2559504,21.7553571 57.3035813,21.8992857 57.354876,22.0542857 C57.4061708,22.2092857 57.4501377,22.3753571 57.4867769,22.5525 C57.5307438,22.7296429 57.5673829,22.9104762 57.5966942,23.095 C57.6260055,23.2795238 57.6516529,23.4603571 57.6736364,23.6375 C57.8843889,23.8073589 58.1275855,23.9317232 58.3880992,24.0028571 C58.718209,24.0890674 59.0583557,24.130032 59.3993388,24.1246429 L59.3993388,24.1246429 C59.5215415,24.1158985 59.6436575,24.1428051 59.7510744,24.2021429 C59.8345518,24.2634748 59.8803508,24.3641244 59.8719835,24.4678571 L59.8719835,24.9107143 C59.8862818,24.9763623 59.8862818,25.044352 59.8719835,25.11 C59.8507007,25.1560112 59.8162514,25.1945657 59.7730579,25.2207143 L59.6301653,25.2207143 L59.3883471,25.2207143 C59.0464668,25.2295155 58.705308,25.1846939 58.3771074,25.0878571 C58.1208197,25.0059986 57.8794989,24.8825936 57.6626446,24.7225 C57.6095163,25.1840016 57.4794535,25.6331645 57.2779339,26.0510714 C57.0886362,26.446517 56.8233856,26.8002399 56.4975207,27.0917857 C56.1568454,27.391647 55.7609631,27.6211177 55.3323967,27.7671429 C54.8367986,27.9353356 54.3164806,28.0176926 53.7935537,28.0107143 C53.2530129,28.0241981 52.7151411,27.9301406 52.2107438,27.7339286 C51.7962105,27.562982 51.4217911,27.3065309 51.1115702,26.9810714 C50.8164945,26.6631408 50.5917147,26.2857917 50.4520661,25.8739286 C50.3056817,25.4580094 50.231322,25.0198516 50.2322314,24.5785714 C50.2146634,24.3574964 50.2146634,24.1353608 50.2322314,23.9142857 C50.2678105,23.6904001 50.3155125,23.4686408 50.375124,23.25 C50.4340768,23.0384605 50.5075315,22.8312963 50.5949587,22.63 C50.6727905,22.4495204 50.7646749,22.2755252 50.8697521,22.1096429 L51.8480165,22.6632143 C51.7752533,22.7831308 51.7127418,22.9090603 51.661157,23.0396429 C51.6036593,23.1838449 51.5559193,23.3318022 51.5182645,23.4825 C51.4801349,23.6394087 51.4507775,23.7983491 51.4303306,23.9585714 C51.4199288,24.117089 51.4199288,24.2761253 51.4303306,24.4346429 C51.4289622,24.7593468 51.4847855,25.0817213 51.5952066,25.3867857 C51.6978151,25.6752789 51.8587581,25.9391787 52.0678512,26.1617857 C52.2847003,26.3883394 52.5470021,26.5657332 52.8372727,26.6821429 C53.1869617,26.8201818 53.561115,26.884249 53.9364463,26.8703571 C54.3110445,26.8740874 54.683289,26.810347 55.0356198,26.6821429 C55.351724,26.5629666 55.63721,26.3737851 55.8709917,26.1285714 C56.1029577,25.8773232 56.2790764,25.5791477 56.3876033,25.2539286 C56.5039807,24.8854202 56.559676,24.5002065 56.5524793,24.1135714 L56.5524793,24.1135714 Z M53.9804132,19.2310714 C53.962647,19.1434039 53.962647,19.0530247 53.9804132,18.9653571 C54.0145112,18.8835327 54.0629089,18.8085348 54.1233058,18.7439286 C54.320182,18.5472615 54.6157285,18.4903503 54.8707438,18.6 C55.0336293,18.6705237 55.163455,18.8012906 55.2334711,18.9653571 C55.3455306,19.2218653 55.2886731,19.5214302 55.0905785,19.7182143 C55.0264373,19.7790491 54.9519793,19.8277977 54.8707438,19.8621429 C54.6606494,19.9509866 54.4203731,19.9281904 54.230444,19.8013945 C54.0405149,19.6745986 53.9260658,19.4605815 53.9254545,19.2310714 L53.9804132,19.2310714 Z" id="Shape"></path>
                    <path d="M61.4438017,24.3792857 C61.3649375,24.5301379 61.2690404,24.6713113 61.1580165,24.8 C61.0635672,24.9094977 60.9522237,25.0029567 60.8282645,25.0767857 C60.708345,25.1448523 60.5785104,25.1934262 60.4435537,25.2207143 C60.2864205,25.237004 60.1280423,25.237004 59.9709091,25.2207143 L59.4652893,25.2207143 C59.3430866,25.2294586 59.2209706,25.2025521 59.1135537,25.1432143 C59.0300763,25.0818823 58.9842773,24.9812327 58.9926446,24.8775 L58.9926446,24.4346429 C58.9783463,24.3689949 58.9783463,24.3010051 58.9926446,24.2353571 C59.0139274,24.1893459 59.0483767,24.1507914 59.0915702,24.1246429 L59.2344628,24.1246429 L59.7290909,24.1246429 C59.9798353,24.1287553 60.2269151,24.0636659 60.4435537,23.9364286 C60.6555573,23.8054753 60.8061496,23.5939159 60.8612397,23.3496429 C60.9669494,22.939984 61.1066703,22.5400035 61.2789256,22.1539286 C61.4129834,21.8549825 61.5749224,21.5695345 61.762562,21.3014286 C61.9094904,21.0879616 62.083125,20.8944623 62.2791736,20.7257143 C62.4370997,20.5908695 62.6105481,20.4756379 62.7957851,20.3825 C62.9525672,20.305164 63.1189199,20.249311 63.2904132,20.2164286 C63.4366842,20.2033971 63.5838117,20.2033971 63.7300826,20.2164286 C63.9951171,20.2132692 64.2588356,20.2544232 64.5104959,20.3382143 C64.7353378,20.4151526 64.9467648,20.5272368 65.1370248,20.6703571 C65.3204348,20.8087238 65.4832905,20.9727602 65.6206612,21.1575 C65.7543527,21.3365808 65.8685874,21.5295896 65.961405,21.7332143 C66.049145,21.9283389 66.1154879,22.1325231 66.1592562,22.3421429 C66.2010004,22.534969 66.2230984,22.7315828 66.2252066,22.9289286 C66.2230475,23.1079999 66.2009254,23.2862604 66.1592562,23.4603571 C66.1141178,23.6517685 66.0477503,23.8374593 65.961405,24.0139286 C65.8730375,24.2003165 65.7622922,24.3750754 65.6316529,24.5342857 C65.4917671,24.7007664 65.3288964,24.8461757 65.1480165,24.9660714 C64.9548193,25.0960548 64.7437265,25.1967711 64.5214876,25.265 C64.264654,25.3414998 63.9978928,25.3788186 63.7300826,25.3757143 C63.4674037,25.3769873 63.2054809,25.3472609 62.9496694,25.2871429 C62.7231148,25.2354499 62.5022014,25.1612782 62.2901653,25.0657143 C62.1077677,24.9806804 61.9346345,24.8767894 61.7735537,24.7557143 C61.651439,24.6416378 61.5409706,24.5155327 61.4438017,24.3792857 Z M65.2359504,23.0285714 C65.2198432,22.632686 65.0942084,22.2492141 64.8732231,21.9214286 C64.750968,21.7405931 64.5939974,21.5862489 64.4115702,21.4675 C64.2078133,21.3384244 63.9707041,21.2729392 63.7300826,21.2792857 C63.4886012,21.2781838 63.2519474,21.3473878 63.048595,21.4785714 C62.8341229,21.6196713 62.6477262,21.7999095 62.4990083,22.01 C62.334495,22.2421357 62.2014233,22.4953159 62.1033058,22.7628571 C61.9960028,23.0454049 61.9186314,23.3385791 61.8724793,23.6375 C61.9423178,23.7178348 62.0285523,23.7820355 62.1252893,23.8257143 C62.2663737,23.8977039 62.4135035,23.9569825 62.5649587,24.0028571 C62.737731,24.0587934 62.9139823,24.1031757 63.092562,24.1357143 C63.2717253,24.1520962 63.4519937,24.1520962 63.631157,24.1357143 C63.8542509,24.1548746 64.078559,24.1548746 64.3016529,24.1357143 C64.4831891,24.1090957 64.6583105,24.0490477 64.8182645,23.9585714 C64.9587868,23.8786497 65.0733188,23.7594419 65.1480165,23.6153571 C65.2207419,23.4289968 65.2471553,23.2275596 65.2249587,23.0285714 L65.2359504,23.0285714 Z" id="Shape"></path>
                    <path d="M75.1175207,22.0210714 L74.7438017,21.9657143 L74.2381818,21.9657143 C74.0820911,21.9676301 73.9269086,21.9899598 73.7765289,22.0321429 C73.6308488,22.0697889 73.493087,22.1335438 73.3698347,22.2203571 C73.2514493,22.3039587 73.1536805,22.4137992 73.0840496,22.5414286 C73.009657,22.6808511 72.9718239,22.8370914 72.9741322,22.9953571 C72.9677449,23.2084621 73.0293868,23.4180119 73.15,23.5932143 C73.2711637,23.763156 73.4290048,23.9032146 73.6116529,24.0028571 C73.8149354,24.1128798 74.0335839,24.1912681 74.2601653,24.2353571 C74.495575,24.2810856 74.7348856,24.303336 74.9746281,24.3017857 L75.3483471,24.3017857 L75.3483471,25.3425 L71.5342149,25.3425 L71.5342149,24.2353571 L72.8312397,24.2353571 C72.7206948,24.1649183 72.6175716,24.0833055 72.5234711,23.9917857 C72.418764,23.8886895 72.3265259,23.773485 72.2486777,23.6485714 C72.1650783,23.5174653 72.0985815,23.3760653 72.0508264,23.2278571 C72.0003153,23.0742711 71.9743444,22.9135787 71.9738843,22.7517857 C71.9654334,22.4586861 72.0336663,22.168503 72.1717355,21.9103571 C72.2969903,21.6839035 72.469491,21.487489 72.6773554,21.3346429 C72.8863545,21.1826819 73.1209754,21.0701477 73.3698347,21.0025 C73.6127915,20.931385 73.864276,20.8941339 74.1172727,20.8917857 L74.6668595,20.8917857 L75.2164463,20.9582143 L75.1175207,22.0210714 Z" id="Shape"></path>
                    <polygon id="Shape" points="77.3158678 15.9539286 78.4150413 15.9539286 78.4150413 25.2760714 77.3158678 25.2760714"></polygon>
                    <path d="M79.5142149,26.8703571 C79.8917603,26.8309325 80.2618409,26.7377415 80.6133884,26.5935714 C81.0876838,26.4118988 81.430748,25.9904945 81.5147107,25.4864286 C81.5607909,25.193514 81.5828489,24.8972752 81.5806612,24.6007143 L81.5806612,20.2496429 L82.7347934,20.2496429 L82.7347934,24.0914286 L84.2516529,24.0914286 C84.3738555,24.0826842 84.4959716,24.1095908 84.6033884,24.1689286 C84.6868659,24.2302606 84.7326649,24.3309101 84.7242975,24.4346429 L84.7242975,24.8775 C84.7385958,24.943148 84.7385958,25.0111377 84.7242975,25.0767857 C84.7030147,25.1227969 84.6685654,25.1613514 84.6253719,25.1875 L84.4824793,25.1875 L82.7238017,25.1875 C82.6696189,25.5711138 82.558458,25.9443365 82.3940496,26.2946429 C82.2497203,26.5966118 82.0437112,26.864479 81.7895041,27.0807143 C81.5227095,27.3022029 81.2169609,27.4712083 80.8881818,27.5789286 C80.4944374,27.7083652 80.0896994,27.801018 79.6790909,27.8557143 L79.5142149,26.8703571 Z M81.4157851,17.9357143 C81.3980189,17.8480467 81.3980189,17.7576675 81.4157851,17.67 C81.4498831,17.5881755 81.4982808,17.5131776 81.5586777,17.4485714 C81.7555539,17.2519043 82.0511004,17.1949931 82.3061157,17.3046429 C82.4690012,17.3751666 82.5988269,17.5059335 82.668843,17.67 C82.7809025,17.9265081 82.724045,18.2260731 82.5259504,18.4228571 C82.4618092,18.4836919 82.3873512,18.5324406 82.3061157,18.5667857 C82.0960213,18.6556295 81.855745,18.6328333 81.6658159,18.5060374 C81.4758868,18.3792414 81.3614377,18.1652244 81.3608264,17.9357143 L81.4157851,17.9357143 Z" id="Shape"></path>
                    <path d="M85.4167769,20.1832143 L86.1861983,19.9839286 C86.4752337,19.9222331 86.7700964,19.8925331 87.0655372,19.8953571 C87.3658069,19.8897383 87.6643457,19.9423614 87.944876,20.0503571 C88.1918917,20.1469925 88.41642,20.2939941 88.6043802,20.4821429 C88.7896847,20.6749103 88.9386622,20.8999967 89.0440496,21.1464286 C89.1611825,21.4149215 89.2424955,21.6978577 89.2858678,21.9878571 L89.4177686,22.785 C89.4544675,23.0142473 89.5096078,23.2401102 89.5826446,23.4603571 C89.6358571,23.6305425 89.7217546,23.788536 89.8354545,23.9253571 C89.9308924,24.0394436 90.0720651,24.1044476 90.2201653,24.1025 L90.2201653,25.265 L84.207686,25.265 C84.0854833,25.2737443 83.9633673,25.2468378 83.8559504,25.1875 C83.772473,25.126168 83.726674,25.0255184 83.7350413,24.9217857 L83.7350413,24.4789286 C83.720743,24.4132806 83.720743,24.3452908 83.7350413,24.2796429 C83.7563241,24.2336317 83.7907734,24.1950772 83.8339669,24.1689286 L83.9768595,24.1689286 L88.736281,24.1689286 C88.6381851,24.0641652 88.563259,23.9396408 88.5164463,23.8035714 C88.4468789,23.5950822 88.3989913,23.3798807 88.3735537,23.1614286 C88.3735537,22.9030952 88.3295868,22.6484524 88.2416529,22.3975 C88.1946211,22.1599691 88.1092168,21.9318198 87.988843,21.7221429 C87.8709756,21.5212949 87.7046089,21.3537219 87.5052066,21.235 C87.2560643,21.0990592 86.9748826,21.0339951 86.6918182,21.0467857 L86.3730579,21.0467857 L86.0103306,21.1021429 L85.658595,21.1796429 L85.3728099,21.2792857 L85.4167769,20.1832143 Z M86.7247934,27.2135714 C86.7070271,27.1259039 86.7070271,27.0355247 86.7247934,26.9478571 C86.7588913,26.8660327 86.8072891,26.7910348 86.867686,26.7264286 C87.0645622,26.5297615 87.3601087,26.4728503 87.615124,26.5825 C87.7780095,26.6530237 87.9078352,26.7837906 87.9778512,26.9478571 C88.0899108,27.2043653 88.0330532,27.5039302 87.8349587,27.7007143 C87.7708175,27.7615491 87.6963595,27.8102977 87.615124,27.8446429 C87.4050295,27.9334866 87.1647533,27.9106904 86.9748242,27.7838945 C86.7848951,27.6570986 86.670446,27.4430815 86.6698347,27.2135714 L86.7247934,27.2135714 Z" id="Shape"></path>
                    <polygon id="Shape" points="95.6940496 15.9539286 96.8481818 15.9539286 96.8481818 25.2760714 95.6940496 25.2760714"></polygon>
                    <path d="M101.805455,25.265 C101.347652,25.276731 100.892023,25.1977344 100.464463,25.0325 C100.133026,24.9025643 99.8331543,24.7024586 99.585124,24.4457143 C99.3667756,24.2112213 99.2017403,23.9316496 99.1014876,23.6264286 C98.8748772,22.993154 98.8748772,22.3000603 99.1014876,21.6667857 C99.2240748,21.3440758 99.4111319,21.0501511 99.6510744,20.8032143 C99.898405,20.5535336 100.193941,20.3575929 100.519421,20.2275 C100.869407,20.0883372 101.242326,20.0169687 101.618595,20.0171429 C101.794141,20.0019855 101.970652,20.0019855 102.146198,20.0171429 C102.336325,20.0516111 102.521113,20.1111717 102.695785,20.1942857 C102.880087,20.2831599 103.050442,20.3987967 103.201405,20.5375 C103.369637,20.6936602 103.510806,20.8770137 103.619091,21.08 C103.749703,21.3275777 103.845867,21.5920829 103.904876,21.8660714 C103.985064,22.2294082 104.021964,22.6010783 104.014793,22.9732143 L104.014793,24.0803571 L105.410744,24.0803571 C105.532946,24.0716128 105.655062,24.0985194 105.762479,24.1578571 C105.845957,24.2191891 105.891756,24.3198387 105.883388,24.4235714 L105.883388,24.8664286 C105.897687,24.9320765 105.897687,25.0000663 105.883388,25.0657143 C105.862106,25.1117255 105.827656,25.15028 105.784463,25.1764286 L105.64157,25.1764286 L103.981818,25.1764286 C103.883892,25.6094079 103.696643,26.0167985 103.432231,26.3721429 C103.183442,26.701957 102.873643,26.9801658 102.519917,27.1914286 C102.138418,27.4142812 101.727703,27.5819945 101.299835,27.6896429 C100.819716,27.8120534 100.330982,27.8971842 99.8379339,27.9442857 L99.7170248,26.8371429 C100.448588,26.8120879 101.167103,26.6349261 101.827438,26.3167857 C102.297697,26.101816 102.659429,25.7014267 102.827686,25.2096429 L101.805455,25.265 Z M102.904628,24.1025 L102.904628,23.3717857 C102.91348,22.9989603 102.872817,22.6266158 102.783719,22.2646429 C102.72235,22.0152398 102.610044,21.7814588 102.453967,21.5782143 C102.333865,21.4262811 102.173952,21.3112293 101.992314,21.2460714 C101.822405,21.1878191 101.644192,21.1579017 101.464711,21.1575 C101.275968,21.1566014 101.089005,21.1942652 100.915124,21.2682143 C100.745245,21.3390604 100.591795,21.4446154 100.464463,21.5782143 C100.33467,21.7193381 100.233816,21.8848844 100.167686,22.0653571 C100.092637,22.263215 100.055345,22.4735647 100.057769,22.6853571 C100.05507,22.8736151 100.084822,23.060917 100.145702,23.2389286 C100.205646,23.4127258 100.307645,23.5687362 100.442479,23.6928571 C100.595476,23.8314089 100.775037,23.9369123 100.970083,24.0028571 C101.221447,24.0878802 101.485374,24.1290668 101.750496,24.1246429 L102.904628,24.1025 Z" id="Shape"></path>
                    <path d="M105.487686,25.265 C105.365483,25.2737443 105.243367,25.2468378 105.13595,25.1875 C105.052473,25.126168 105.006674,25.0255184 105.015041,24.9217857 L105.015041,24.4789286 C105.000743,24.4132806 105.000743,24.3452908 105.015041,24.2796429 C105.036324,24.2336317 105.070773,24.1950772 105.113967,24.1689286 L105.25686,24.1689286 L107.554132,24.1689286 L107.554132,20.2496429 L108.708264,20.2496429 L108.708264,25.265 L105.487686,25.265 Z M107.554132,17.9246429 C107.536366,17.8369753 107.536366,17.7465961 107.554132,17.6589286 C107.58823,17.5771041 107.636628,17.5021062 107.697025,17.4375 C107.893901,17.2408329 108.189448,17.1839217 108.444463,17.2935714 C108.607348,17.3640952 108.737174,17.4948621 108.80719,17.6589286 C108.91925,17.9154367 108.862392,18.2150016 108.664298,18.4117857 C108.600156,18.4726205 108.525698,18.5213691 108.444463,18.5557143 C108.234368,18.644558 107.994092,18.6217619 107.804163,18.4949659 C107.614234,18.36817 107.499785,18.1541529 107.499174,17.9246429 L107.554132,17.9246429 Z" id="Shape"></path>
                    <path d="M113.753471,25.265 C113.295669,25.276731 112.84004,25.1977344 112.412479,25.0325 C112.081043,24.9025643 111.781171,24.7024586 111.53314,24.4457143 C111.314792,24.2112213 111.149757,23.9316496 111.049504,23.6264286 C110.822894,22.993154 110.822894,22.3000603 111.049504,21.6667857 C111.172091,21.3440758 111.359148,21.0501511 111.599091,20.8032143 C111.846422,20.5535336 112.141958,20.3575929 112.467438,20.2275 C112.817423,20.0883372 113.190343,20.0169687 113.566612,20.0171429 C113.742157,20.0019855 113.918669,20.0019855 114.094215,20.0171429 C114.284342,20.0516111 114.469129,20.1111717 114.643802,20.1942857 C114.828103,20.2831599 114.998458,20.3987967 115.149421,20.5375 C115.317653,20.6936602 115.458822,20.8770137 115.567107,21.08 C115.697719,21.3275777 115.793883,21.5920829 115.852893,21.8660714 C115.933081,22.2294082 115.96998,22.6010783 115.96281,22.9732143 L115.96281,24.0803571 L117.35876,24.0803571 C117.480963,24.0716128 117.603079,24.0985194 117.710496,24.1578571 C117.793973,24.2191891 117.839772,24.3198387 117.831405,24.4235714 L117.831405,24.8664286 C117.845703,24.9320765 117.845703,25.0000663 117.831405,25.0657143 C117.810122,25.1117255 117.775673,25.15028 117.732479,25.1764286 L117.589587,25.1764286 L115.929835,25.1764286 C115.831908,25.6094079 115.644659,26.0167985 115.380248,26.3721429 C115.131458,26.701957 114.821659,26.9801658 114.467934,27.1914286 C114.086434,27.4142812 113.675719,27.5819945 113.247851,27.6896429 C112.767733,27.8120534 112.278999,27.8971842 111.78595,27.9442857 L111.665041,26.8371429 C112.396604,26.8120879 113.11512,26.6349261 113.775455,26.3167857 C114.245714,26.101816 114.607445,25.7014267 114.775702,25.2096429 L113.753471,25.265 Z M114.852645,24.1025 L114.852645,23.3717857 C114.861496,22.9989603 114.820833,22.6266158 114.731736,22.2646429 C114.670366,22.0152398 114.558061,21.7814588 114.401983,21.5782143 C114.281882,21.4262811 114.121969,21.3112293 113.940331,21.2460714 C113.770421,21.1878191 113.592209,21.1579017 113.412727,21.1575 C113.223985,21.1566014 113.037021,21.1942652 112.86314,21.2682143 C112.693261,21.3390604 112.539811,21.4446154 112.412479,21.5782143 C112.282687,21.7193381 112.181833,21.8848844 112.115702,22.0653571 C112.040654,22.263215 112.003362,22.4735647 112.005785,22.6853571 C112.003086,22.8736151 112.032839,23.060917 112.093719,23.2389286 C112.153662,23.4127258 112.255661,23.5687362 112.390496,23.6928571 C112.543492,23.8314089 112.723053,23.9369123 112.918099,24.0028571 C113.169463,24.0878802 113.43339,24.1290668 113.698512,24.1246429 L114.852645,24.1025 Z" id="Shape"></path>
                    <path d="M117.435702,25.265 C117.3135,25.2737443 117.191384,25.2468378 117.083967,25.1875 C117.000489,25.126168 116.95469,25.0255184 116.963058,24.9217857 L116.963058,24.4789286 C116.94876,24.4132806 116.94876,24.3452908 116.963058,24.2796429 C116.984341,24.2336317 117.01879,24.1950772 117.061983,24.1689286 L117.204876,24.1689286 L119.326281,24.1689286 C119.574934,24.1912504 119.825066,24.1912504 120.073719,24.1689286 C120.236554,24.1431138 120.393142,24.086784 120.535372,24.0028571 C120.636336,23.9437237 120.716892,23.8548557 120.766198,23.7482143 C120.810888,23.6394454 120.833319,23.5227093 120.832149,23.405 C120.829209,23.1827881 120.768577,22.9652213 120.656281,22.7739286 C120.53895,22.499539 120.379448,22.2454741 120.183636,22.0210714 C119.944699,21.7932437 119.687336,21.58586 119.414215,21.4010714 C119.121102,21.1944048 118.798678,20.9914286 118.446942,20.7921429 L121.019008,16.3635714 L121.865372,16.9614286 L119.897851,20.4267857 C120.183301,20.5972977 120.45524,20.7897755 120.71124,21.0025 C120.948195,21.1987224 121.162092,21.4215993 121.34876,21.6667857 C121.522469,21.8926705 121.663129,22.1424737 121.766446,22.4085714 C121.865034,22.670122 121.91352,22.9481217 121.909339,23.2278571 C121.926092,23.3934999 121.926092,23.5604287 121.909339,23.7260714 C122.123958,23.8701729 122.36208,23.9751066 122.61281,24.0360714 C122.922625,24.1084019 123.24013,24.1418701 123.558099,24.1357143 L123.558099,24.1357143 C123.680302,24.1269699 123.802418,24.1538765 123.909835,24.2132143 C123.993312,24.2745463 124.039111,24.3751958 124.030744,24.4789286 L124.030744,24.9217857 C124.045042,24.9874337 124.045042,25.0554235 124.030744,25.1210714 C124.009461,25.1670826 123.975012,25.2056371 123.931818,25.2317857 L123.788926,25.2317857 L123.481157,25.2317857 C123.258105,25.2519022 123.033714,25.2519022 122.810661,25.2317857 C122.626232,25.199276 122.445708,25.1473237 122.272066,25.0767857 C122.117844,25.0149788 121.970482,24.9370527 121.832397,24.8442857 C121.707483,24.758252 121.589837,24.6619723 121.480661,24.5564286 C121.275578,24.8017895 121.010317,24.9888188 120.71124,25.0989286 C120.315722,25.2368075 119.898488,25.3005968 119.480165,25.2871429 L117.435702,25.265 Z" id="Shape"></path>
                    <path d="M126.492893,23.7039286 C126.700595,23.843606 126.931374,23.9448351 127.17438,24.0028571 C127.484268,24.074745 127.801719,24.1082075 128.119669,24.1025 L128.119669,24.1025 C128.241872,24.0937557 128.363988,24.1206622 128.471405,24.18 C128.554882,24.241332 128.600681,24.3419816 128.592314,24.4457143 L128.592314,24.8885714 C128.606612,24.9542194 128.606612,25.0222092 128.592314,25.0878571 C128.571031,25.1338683 128.536582,25.1724228 128.493388,25.1985714 L128.350496,25.1985714 L128.108678,25.1985714 C127.734643,25.207309 127.36216,25.1472797 127.009504,25.0214286 C126.734377,24.9165261 126.478173,24.7669253 126.251074,24.5785714 C126.142587,24.7564094 125.996152,24.907688 125.822397,25.0214286 C125.617442,25.1466223 125.380415,25.2082339 125.140909,25.1985714 L123.602066,25.1985714 C123.479863,25.2073158 123.357747,25.1804092 123.250331,25.1210714 C123.166853,25.0597394 123.121054,24.9590899 123.129421,24.8553571 L123.129421,24.4125 C123.115123,24.346852 123.115123,24.2788623 123.129421,24.2132143 C123.150704,24.1672031 123.185154,24.1286486 123.228347,24.1025 L123.37124,24.1025 L124.855124,24.1025 C124.988565,24.1070234 125.114266,24.0394969 125.184876,23.9253571 C125.276942,23.75629 125.318906,23.5641619 125.305785,23.3717857 L125.305785,20.2607143 L126.459917,20.2607143 L126.492893,23.7039286 Z M124.294545,17.9357143 C124.276779,17.8480467 124.276779,17.7576675 124.294545,17.67 C124.328643,17.5881755 124.377041,17.5131776 124.437438,17.4485714 C124.634314,17.2519043 124.929861,17.1949931 125.184876,17.3046429 C125.347762,17.3751666 125.477587,17.5059335 125.547603,17.67 C125.659663,17.9265081 125.602805,18.2260731 125.404711,18.4228571 C125.34057,18.4836919 125.266112,18.5324406 125.184876,18.5667857 C124.974782,18.6556295 124.734505,18.6328333 124.544576,18.5060374 C124.354647,18.3792414 124.240198,18.1652244 124.239587,17.9357143 L124.294545,17.9357143 Z M126.130165,17.9357143 C126.112399,17.8480467 126.112399,17.7576675 126.130165,17.67 C126.164263,17.5881755 126.212661,17.5131776 126.273058,17.4485714 C126.469934,17.2519043 126.765481,17.1949931 127.020496,17.3046429 C127.183381,17.3751666 127.313207,17.5059335 127.383223,17.67 C127.495283,17.9265081 127.438425,18.2260731 127.240331,18.4228571 C127.176189,18.4836919 127.101731,18.5324406 127.020496,18.5667857 C126.810401,18.6556295 126.570125,18.6328333 126.380196,18.5060374 C126.190267,18.3792414 126.075818,18.1652244 126.075207,17.9357143 L126.130165,17.9357143 Z" id="Shape"></path>
                    <path d="M128.18562,25.265 C128.063417,25.2737443 127.941301,25.2468378 127.833884,25.1875 C127.750407,25.126168 127.704608,25.0255184 127.712975,24.9217857 L127.712975,24.4789286 C127.698677,24.4132806 127.698677,24.3452908 127.712975,24.2796429 C127.734258,24.2336317 127.768707,24.1950772 127.811901,24.1689286 L127.954793,24.1689286 L129.889339,24.1689286 L129.889339,16.0092857 L131.043471,16.0092857 L131.043471,25.3314286 L128.18562,25.265 Z" id="Shape"></path>
                </g>
                <path d="M2.98176292,26.6597245 C3.03647416,26.5292218 3.06382979,26.4509202 3.06382979,26.3726187 C3.06382979,26.3204176 3.03647416,26.3465181 2.95440729,26.2160155 C2.92705167,26.189915 2.89969605,26.189915 2.87234043,26.1377139 C2.59878419,25.8245076 2.35258359,25.5374018 2.18844985,25.250296 C2.02431611,25.0153912 1.91489362,24.754386 1.91489362,24.6238833 C1.91489362,24.5455817 1.96960486,24.5194812 2.24316109,24.5194812 L2.43465046,24.5194812 C3.33738602,24.5194812 4.10334347,23.6059628 4.10334347,22.4836401 C4.10334347,21.2308148 3.3100304,20.5 2.02431611,20.5 C0.765957447,20.5 0,21.5179206 0,23.2405554 C0,24.7021849 0.711246201,26.0594123 2.1337386,27.3383382 C2.27051672,27.4427403 2.37993921,27.5210419 2.4893617,27.4949413 L2.54407295,27.4949413 C2.59878419,27.4949413 2.62613982,27.4949413 2.65349544,27.4166397 C2.65349544,27.3905392 2.68085106,27.3905392 2.70820669,27.2600366 L2.98176292,26.6597245 Z M7.87841945,26.6597245 C7.96048632,26.5292218 7.98784195,26.4509202 7.98784195,26.3726187 C7.98784195,26.3204176 7.96048632,26.3465181 7.87841945,26.2160155 C7.85106383,26.189915 7.82370821,26.189915 7.76899696,26.1377139 C7.49544073,25.8245076 7.27659574,25.5374018 7.08510638,25.250296 C6.92097264,25.0153912 6.81155015,24.754386 6.81155015,24.6238833 C6.81155015,24.5455817 6.89361702,24.5194812 7.13981763,24.5194812 L7.33130699,24.5194812 C8.26139818,24.5194812 9,23.6059628 9,22.4836401 C9,21.2308148 8.23404255,20.5 6.92097264,20.5 C5.66261398,20.5 4.89665653,21.5179206 4.89665653,23.2405554 C4.89665653,24.7021849 5.60790274,26.0594123 7.05775076,27.3383382 C7.19452888,27.4427403 7.27659574,27.5210419 7.41337386,27.4949413 L7.44072948,27.4949413 C7.49544073,27.4949413 7.52279635,27.4949413 7.55015198,27.4166397 C7.55015198,27.3905392 7.5775076,27.3905392 7.60486322,27.2600366 L7.87841945,26.6597245 Z" id="-"></path>
                <path d="M137.395137,6.73977695 L137.422492,6.73977695 C137.449848,6.84386617 137.477204,6.84386617 137.477204,6.89591078 C137.504559,6.9739777 137.559271,6.94795539 137.613982,7 C137.696049,7 137.805471,6.94795539 137.969605,6.81784387 C139.364742,5.59479554 140.103343,4.18959108 140.103343,2.6802974 C140.103343,0.988847584 139.337386,0 138.051672,0 C136.765957,0 136,0.75464684 136,1.97769517 C136,3.09665428 136.738602,4.00743494 137.668693,4.00743494 L137.860182,4.00743494 C138.106383,4.00743494 138.18845,4.03345725 138.18845,4.11152416 C138.18845,4.24163569 138.079027,4.52788104 137.914894,4.73605948 C137.723404,5.04832714 137.477204,5.33457249 137.231003,5.62081784 C137.176292,5.69888476 137.148936,5.67286245 137.121581,5.72490706 C137.012158,5.82899628 137.012158,5.80297398 137.012158,5.88104089 C137.012158,5.9330855 137.039514,6.01115242 137.121581,6.14126394 L137.395137,6.73977695 Z M142.291793,6.73977695 L142.319149,6.73977695 C142.346505,6.84386617 142.37386,6.84386617 142.401216,6.89591078 C142.428571,6.9739777 142.483283,6.94795539 142.537994,7 C142.620061,7 142.702128,6.94795539 142.866261,6.81784387 C144.261398,5.59479554 145,4.18959108 145,2.6802974 C145,0.988847584 144.234043,0 142.948328,0 C141.662614,0 140.896657,0.75464684 140.896657,1.97769517 C140.896657,3.09665428 141.662614,4.00743494 142.592705,4.00743494 L142.784195,4.00743494 C143.030395,4.00743494 143.085106,4.03345725 143.085106,4.11152416 C143.085106,4.24163569 142.975684,4.52788104 142.81155,4.73605948 C142.620061,5.04832714 142.401216,5.33457249 142.12766,5.62081784 C142.072948,5.69888476 142.045593,5.67286245 142.045593,5.72490706 C141.93617,5.82899628 141.93617,5.80297398 141.93617,5.88104089 C141.93617,5.9330855 141.963526,6.01115242 142.018237,6.14126394 L142.291793,6.73977695 Z" id="Combined-Shape"></path>
            </g>
        </g>
    </g>
</svg>