<?xml version="1.0" encoding="UTF-8" standalone="no"?>
<svg width="640px" height="480px" viewBox="0 0 640 480" version="1.1" xmlns="http://www.w3.org/2000/svg" xmlns:xlink="http://www.w3.org/1999/xlink">
    <!-- Generator: Sketch 41.2 (35397) - http://www.bohemiancoding.com/sketch -->
    <title>Artboard</title>
    <desc>Created with Sketch.</desc>
    <defs></defs>
    <g id="Page-1" stroke="none" stroke-width="1" fill="none" fill-rule="evenodd">
        <g id="Artboard">
            <g id="Group" transform="translate(270.000000, 205.000000)">
                <path d="M94.1541528,4.75881191 C92.1358405,2.9083828 89.5797143,1.69481295 86.7841196,1.38284244 C80.7079136,0.695967769 74.5766113,0.350228639 68.4249834,0.176882609 C62.3128306,0.00472706994 56.174485,0.00472706994 50.0497674,0.00829384688 C43.9259203,0.00472709679 37.7879734,0.00472709679 31.6750166,0.176882609 C25.5226844,0.350226626 19.3895681,0.695964414 13.3099003,1.38284244 C10.5170033,1.69497267 7.96197342,2.90909414 5.94551495,4.76032183 C3.9418804,6.59965803 2.46977409,9.06990775 1.82578073,11.9095118 C0.956392027,15.7158701 0.516598007,19.687233 0.294425249,23.6832311 C0.0713887043,27.6961471 0.0658172757,31.6582491 0.0658172757,35.504664 C0.0658172757,39.3459787 0.0658957542,43.3029201 0.283673754,47.3182453 C0.500431894,51.3124516 0.934889037,55.2836668 1.80474352,59.0906895 C2.45258472,61.9314881 3.92539468,64.4024559 5.92887641,66.2416914 C7.94413223,68.0918856 10.4966439,69.3052944 13.2887435,69.617426 C19.3691887,70.3042268 25.5022983,70.6499593 31.6546571,70.8232248 C37.7675143,70.9953803 43.9054877,70.9953803 50.0302053,70.9918135 C56.1576605,70.9953803 62.2955209,70.9953803 68.4075475,70.8232248 C74.5590159,70.6499599 80.6903382,70.3042228 86.7700724,69.617426 C89.5616339,69.3052958 92.1136007,68.0922816 94.1297402,66.2426443 C96.1342385,64.4035497 97.609089,61.9323404 98.2611688,59.0907029 C99.1271821,55.2835527 99.5617136,51.3123107 99.7792618,47.3182587 C99.993901,43.3795303 99.9957056,39.3838409 99.995392,35.5046774 L99.9995514,35.5046774 L99.9995514,35.3099327 L99.995392,35.3099327 C99.995549,27.6026076 99.995549,19.4394866 98.2822824,11.9095944 C97.6344412,9.06871525 96.1599834,6.59798235 94.1541495,4.7588609 L94.1541528,4.75881191 Z" id="Shape" fill="#CC181E"></path>
                <path d="M65.4860234,34.0356303 C60.9893102,31.6172988 56.5228251,29.2171634 52.0616666,26.8199517 C48.3533234,24.8272391 44.6483388,22.8363154 40.932596,20.8385012 L39.7058824,20.1789474 L39.7058824,21.6018495 L39.7058824,47.9069913 L39.7058824,49.3263158 L40.9293108,48.6737173 C45.0332953,46.4845377 49.1197517,44.3034646 53.2060507,42.1217916 L65.4827382,35.5657046 L66.9117647,34.8024266 L65.4860234,34.0356357 L65.4860234,34.0356303 Z" id="Shape" fill="#FFFFFE"></path>
            </g>
        </g>
    </g>
</svg>