<?xml version="1.0" encoding="UTF-8" standalone="no"?>
<svg width="500px" height="325px" viewBox="0 0 500 325" version="1.1" xmlns="http://www.w3.org/2000/svg" xmlns:xlink="http://www.w3.org/1999/xlink">
    <!-- Generator: Sketch 3.8 (29681) - http://www.bohemiancoding.com/sketch -->
    <title>FarahLogo</title>
    <desc>Created with Sketch.</desc>
    <defs></defs>
    <g id="Page-1" stroke="none" stroke-width="1" fill="none" fill-rule="evenodd">
        <g id="FarahLogo" fill="#000000">
            <path d="M398.981961,162.01814 C399.324113,176.95363 401.107002,189.643105 388.004432,177.956795 C385.704616,178.132626 387.828733,190.703646 379.088138,184.432018 C371.152987,178.736931 363.198417,172.142327 355.657203,165.099817 C343.885327,176.677852 333.349821,189.005485 327.425045,200.261472 C314.737681,221.172454 318.830558,241.231116 341.107423,248.22643 C405.6493,256.957848 460.683977,206.694125 466.46357,190.531517 C469.798165,181.230035 467.646306,170.514499 457.712803,158.899446 C453.959304,154.504586 440.919616,152.625966 448.526486,149.441567 C448.526486,149.441567 449.294941,149.237973 450.609914,149.186149 C470.124596,148.377324 478.983557,177.857774 473.307534,193.711289 C466.099225,213.864345 403.405893,265.977999 341.282198,255.708519 C341.282198,255.708519 337.077428,254.784016 333.322079,252.873006 C309.945704,240.961816 308.205353,218.998622 319.722927,196.269173 C319.722927,196.269173 320.911211,193.98244 323.628083,189.919809 C330.768886,179.225557 339.662987,168.841324 349.411543,159.071576 C340.552582,150.252242 332.502764,140.975747 326.058286,132.088857 C320.564436,124.522554 318.123136,114.644531 318.102791,109.950757 C317.977027,74.5614468 370.166295,56.9755294 398.872842,53.4616775 C416.425237,50.0736838 437.886486,52.1679285 436.307038,74.3467474 C436.085102,77.4598888 435.403572,79.6318695 435.403572,79.6318695 C428.185091,106.281433 406.937456,123.150144 400.117536,127.972552 C389.431298,135.54996 374.720614,147.122443 360.968881,160.004407 C367.305165,165.019304 373.609083,169.400283 379.051148,172.778097 C381.92245,164.308575 383.226327,160.244093 390.232119,167.956614 L390.05457,160.410671 C389.422976,152.804574 398.842326,156.234212 398.981961,162.01814 L398.981961,162.01814 Z M354.197971,154.383355 C367.320885,141.828067 381.653352,130.426788 395.119343,120.896725 C401.500014,116.375082 420.719706,100.884335 427.086506,77.1711551 C427.086506,77.1711551 427.506336,75.7154561 427.657068,73.7304121 C428.762126,58.2442919 410.868504,59.9692906 400.201686,62.0385486 C400.201686,62.0385486 391.317758,63.0666997 379.27031,66.5074428 C359.75008,72.0840748 325.445187,84.7587432 325.533962,109.807316 C325.55523,114.021717 326.354201,118.39159 328.001154,122.283943 C332.574894,133.170683 342.945796,144.594172 354.197971,154.383355 L354.197971,154.383355 Z M290.767626,230.870019 L290.767626,236.243982 L289.890052,240.423217 L288.846026,246.388529 C288.042432,251.000864 281.421329,252.250193 281.222511,247.561972 C281.119866,245.036478 280.775864,242.594272 280.30425,241.212607 C279.629193,239.268282 280.07584,237.367452 280.07584,237.367452 L280.231196,229.219054 C280.231196,227.108152 282.085289,225.090718 283.633295,224.780699 C286.447264,224.195829 290.767626,228.2927 290.767626,230.870019 L290.767626,230.870019 Z M68.8044165,106.979206 C64.4988505,112.955624 59.176076,117.876127 56.0661923,122.8392 C36.4886283,154.082591 35.2115693,164.320606 33.4351535,180.034381 C33.5128312,220.081374 48.4944624,238.207741 83.8572523,249.827421 C115.019896,260.074691 119.070235,242.583167 118.4932,234.36166 C115.295467,209.137256 116.76857,180.336071 133.569155,157.283648 C134.352405,156.212002 134.24976,156.384131 134.6326,155.786304 C125.368605,138.318842 116.167492,119.388277 115.82534,101.292448 C115.82534,101.292448 115.761533,99.9311432 116.094438,97.5352088 C117.959628,83.7231888 126.67803,71.2650706 136.782609,62.1088812 C136.782609,62.1088812 138.497067,60.5911785 141.186197,58.8347153 C154.927758,49.8339979 170.058272,50.1245824 176.031135,69.674259 C176.031135,69.674259 176.996558,72.3089539 176.954945,78.8313738 C176.767224,110.178413 160.670362,132.961536 143.734766,157.588114 C146.461809,161.345353 149.141691,164.505692 149.172208,164.55659 C149.172208,164.55659 170.930297,192.007575 171.263201,192.380523 C177.409915,199.271263 180.359819,199.905182 183.112755,190.75362 C184.899343,175.808875 183.963511,148.643847 178.283789,133.959148 C176.248447,128.714745 181.669244,126.37156 186.260553,132.14901 C186.260553,132.14901 204.092217,150.49563 218.793654,166.033574 C240.359398,132.487717 265.971782,103.463504 291.712705,73.7174561 C297.160319,67.4189898 300.608655,63.1157474 301.952295,60.5800734 C316.466935,33.3548929 291.374252,38.3586847 285.625175,39.7310951 C254.240595,46.9281524 217.542487,65.6736317 217.521219,65.6838114 C204.436219,72.3876153 215.943621,34.4561528 208.953549,27.4673169 C204.103314,22.607892 213.927698,14.1531774 217.70894,26.0949065 C220.086433,33.6306706 220.118799,46.7051242 220.036498,54.7970708 C240.329806,45.14115 261.707829,36.3227421 283.632371,31.2874857 C283.632371,31.2874857 286.431543,30.6119229 290.294161,30.2436024 C313.377396,28.0401572 322.215088,40.9952305 309.607251,64.6667655 C303.858174,75.4554107 286.437092,92.7757302 278.237467,102.254894 C262.767576,120.127694 243.735605,143.274511 226.250717,170.47378 L224.936668,172.614296 C237.087686,185.918256 235.561873,183.640776 245.37701,197.714693 C256.490475,213.63854 268.344652,228.428738 268.806095,251.59499 C269.559754,289.707836 238.657886,305.214316 223.18707,304.997765 C192.63845,304.570217 181.950363,270.730074 181.400146,258.360797 C179.946463,225.976353 197.425803,201.945752 214.920864,172.355176 C206.326377,163.084233 197.835461,154.697075 190.612356,147.524079 L191.266143,149.55632 C192.918645,159.498198 194.019079,173.790516 191.931028,191.1969 C191.931028,191.1969 191.69707,192.912644 191.100616,195.158659 C187.906581,207.224396 181.733051,215.362614 170.557629,202.849895 C170.557629,202.849895 141.882522,167.479093 139.639115,162.958375 L138.891004,163.997631 C125.56095,183.474199 124.196041,210.685498 127.130225,233.602809 C128.282445,246.636544 124.974668,269.096693 85.6022271,258.173861 C44.1731759,246.667083 21.4700077,214.115136 25.4482176,174.733527 C26.5699211,163.645043 29.1036949,146.026736 57.6900269,103.180323 C59.1548071,100.981504 61.007976,96.4089624 63.6564169,97.0789726 C66.8042147,97.8748411 71.2392436,103.590287 68.8044165,106.979206 L68.8044165,106.979206 Z M138.741197,149.950552 C154.969371,123.925653 168.096909,109.795285 168.283705,78.7814007 C168.315146,74.25513 167.785273,72.3589271 167.785273,72.3589271 C163.650783,55.1783473 143.166054,69.4900988 140.615635,71.7240831 C132.883001,78.7397564 124.356945,89.4080959 124.491956,101.049061 C123.811351,120.298899 131.762222,138.22815 138.741197,149.950552 L138.741197,149.950552 Z M220.711554,178.112267 C217.111561,183.766635 212.033841,191.750306 206.078548,202.256696 C194.632179,222.440291 189.025511,234.902111 190.063063,257.976744 C190.603108,270.012867 198.038902,294.936507 220.981577,296.42182 C223.734513,296.608756 246.925941,297.990421 259.057539,266.883068 C266.964023,242.802494 246.35353,207.067998 220.711554,178.112267 L220.711554,178.112267 Z M400.847151,144.926401 C400.419924,144.209194 398.925552,141.599486 399.184478,139.687551 C399.474845,137.63495 400.742656,133.944342 404.730114,136.703969 C405.202653,137.036198 408.0906,140.945208 407.815029,142.482345 C406.931908,147.587008 403.308796,149.026049 400.847151,144.926401 L400.847151,144.926401 Z M84.3455123,57.1217471 C84.828224,57.8704188 86.6194356,60.4162725 86.7294791,62.4596186 C86.8441462,64.6473315 86.8127052,68.2537263 82.305547,65.7911611 C82.305547,65.7911611 77.7623241,61.3944504 77.7299584,59.7314554 C77.6208396,54.2519934 81.3956078,52.5371744 84.3455123,57.1217471 L84.3455123,57.1217471 Z" id="Shape"></path>
        </g>
    </g>
</svg>